<?xml version="1.0" encoding="UTF-8" standalone="no"?>
<!DOCTYPE svg PUBLIC "-//W3C//DTD SVG 1.1//EN"
 "http://www.w3.org/Graphics/SVG/1.1/DTD/svg11.dtd">
<!-- Generated by graphviz version 2.43.0 (0)
 -->
<!-- Title: snakemake_dag Pages: 1 -->
<svg width="1540pt" height="332pt"
 viewBox="0.00 0.00 1540.00 332.00" xmlns="http://www.w3.org/2000/svg" xmlns:xlink="http://www.w3.org/1999/xlink">
<g id="graph0" class="graph" transform="scale(1 1) rotate(0) translate(4 328)">
<title>snakemake_dag</title>
<polygon fill="white" stroke="transparent" points="-4,4 -4,-328 1536,-328 1536,4 -4,4"/>
<!-- 0 -->
<g id="node1" class="node">
<title>0</title>
<path fill="none" stroke="#88d856" stroke-width="2" stroke-dasharray="5,2" d="M780.5,-36C780.5,-36 750.5,-36 750.5,-36 744.5,-36 738.5,-30 738.5,-24 738.5,-24 738.5,-12 738.5,-12 738.5,-6 744.5,0 750.5,0 750.5,0 780.5,0 780.5,0 786.5,0 792.5,-6 792.5,-12 792.5,-12 792.5,-24 792.5,-24 792.5,-30 786.5,-36 780.5,-36"/>
<text text-anchor="middle" x="765.5" y="-15.5" font-family="sans" font-size="10.00">all</text>
</g>
<!-- 1 -->
<g id="node2" class="node">
<title>1</title>
<path fill="none" stroke="#d85656" stroke-width="2" stroke-dasharray="5,2" d="M809.5,-108C809.5,-108 721.5,-108 721.5,-108 715.5,-108 709.5,-102 709.5,-96 709.5,-96 709.5,-84 709.5,-84 709.5,-78 715.5,-72 721.5,-72 721.5,-72 809.5,-72 809.5,-72 815.5,-72 821.5,-78 821.5,-84 821.5,-84 821.5,-96 821.5,-96 821.5,-102 815.5,-108 809.5,-108"/>
<text text-anchor="middle" x="765.5" y="-87.5" font-family="sans" font-size="10.00">visualize_summary</text>
</g>
<!-- 1&#45;&gt;0 -->
<g id="edge1" class="edge">
<title>1&#45;&gt;0</title>
<path fill="none" stroke="grey" stroke-width="2" d="M765.5,-71.7C765.5,-63.98 765.5,-54.71 765.5,-46.11"/>
<polygon fill="grey" stroke="grey" stroke-width="2" points="769,-46.1 765.5,-36.1 762,-46.1 769,-46.1"/>
</g>
<!-- 2 -->
<g id="node3" class="node">
<title>2</title>
<path fill="none" stroke="#56d88a" stroke-width="2" stroke-dasharray="5,2" d="M835.5,-180C835.5,-180 695.5,-180 695.5,-180 689.5,-180 683.5,-174 683.5,-168 683.5,-168 683.5,-156 683.5,-156 683.5,-150 689.5,-144 695.5,-144 695.5,-144 835.5,-144 835.5,-144 841.5,-144 847.5,-150 847.5,-156 847.5,-156 847.5,-168 847.5,-168 847.5,-174 841.5,-180 835.5,-180"/>
<text text-anchor="middle" x="765.5" y="-159.5" font-family="sans" font-size="10.00">combine_sequence_measures</text>
</g>
<!-- 2&#45;&gt;1 -->
<g id="edge2" class="edge">
<title>2&#45;&gt;1</title>
<path fill="none" stroke="grey" stroke-width="2" d="M765.5,-143.7C765.5,-135.98 765.5,-126.71 765.5,-118.11"/>
<polygon fill="grey" stroke="grey" stroke-width="2" points="769,-118.1 765.5,-108.1 762,-118.1 769,-118.1"/>
</g>
<!-- 3 -->
<g id="node4" class="node">
<title>3</title>
<path fill="none" stroke="#56c1d8" stroke-width="2" stroke-dasharray="5,2" d="M125,-252C125,-252 12,-252 12,-252 6,-252 0,-246 0,-240 0,-240 0,-228 0,-228 0,-222 6,-216 12,-216 12,-216 125,-216 125,-216 131,-216 137,-222 137,-228 137,-228 137,-240 137,-240 137,-246 131,-252 125,-252"/>
<text text-anchor="middle" x="68.5" y="-231.5" font-family="sans" font-size="10.00">get_sequence_measures</text>
</g>
<!-- 3&#45;&gt;2 -->
<g id="edge3" class="edge">
<title>3&#45;&gt;2</title>
<path fill="none" stroke="grey" stroke-width="2" d="M137.26,-217.35C140.04,-216.86 142.79,-216.41 145.5,-216 331.7,-187.61 551.85,-173.31 673.34,-167.07"/>
<polygon fill="grey" stroke="grey" stroke-width="2" points="673.54,-170.57 683.35,-166.57 673.19,-163.58 673.54,-170.57"/>
</g>
<!-- 4 -->
<g id="node5" class="node">
<title>4</title>
<path fill="none" stroke="#56c1d8" stroke-width="2" stroke-dasharray="5,2" d="M280,-252C280,-252 167,-252 167,-252 161,-252 155,-246 155,-240 155,-240 155,-228 155,-228 155,-222 161,-216 167,-216 167,-216 280,-216 280,-216 286,-216 292,-222 292,-228 292,-228 292,-240 292,-240 292,-246 286,-252 280,-252"/>
<text text-anchor="middle" x="223.5" y="-231.5" font-family="sans" font-size="10.00">get_sequence_measures</text>
</g>
<!-- 4&#45;&gt;2 -->
<g id="edge4" class="edge">
<title>4&#45;&gt;2</title>
<path fill="none" stroke="grey" stroke-width="2" d="M292.33,-217.6C295.42,-217.04 298.49,-216.5 301.5,-216 429.81,-194.75 579.49,-179.32 673.39,-170.76"/>
<polygon fill="grey" stroke="grey" stroke-width="2" points="673.79,-174.24 683.43,-169.85 673.16,-167.27 673.79,-174.24"/>
</g>
<!-- 5 -->
<g id="node6" class="node">
<title>5</title>
<path fill="none" stroke="#56c1d8" stroke-width="2" stroke-dasharray="5,2" d="M435,-252C435,-252 322,-252 322,-252 316,-252 310,-246 310,-240 310,-240 310,-228 310,-228 310,-222 316,-216 322,-216 322,-216 435,-216 435,-216 441,-216 447,-222 447,-228 447,-228 447,-240 447,-240 447,-246 441,-252 435,-252"/>
<text text-anchor="middle" x="378.5" y="-231.5" font-family="sans" font-size="10.00">get_sequence_measures</text>
</g>
<!-- 5&#45;&gt;2 -->
<g id="edge5" class="edge">
<title>5&#45;&gt;2</title>
<path fill="none" stroke="grey" stroke-width="2" d="M447.37,-217.82C450.45,-217.19 453.51,-216.58 456.5,-216 529.12,-201.86 611.75,-187.8 673.27,-177.71"/>
<polygon fill="grey" stroke="grey" stroke-width="2" points="674.04,-181.13 683.34,-176.06 672.91,-174.22 674.04,-181.13"/>
</g>
<!-- 6 -->
<g id="node7" class="node">
<title>6</title>
<path fill="none" stroke="#56c1d8" stroke-width="2" stroke-dasharray="5,2" d="M590,-252C590,-252 477,-252 477,-252 471,-252 465,-246 465,-240 465,-240 465,-228 465,-228 465,-222 471,-216 477,-216 477,-216 590,-216 590,-216 596,-216 602,-222 602,-228 602,-228 602,-240 602,-240 602,-246 596,-252 590,-252"/>
<text text-anchor="middle" x="533.5" y="-231.5" font-family="sans" font-size="10.00">get_sequence_measures</text>
</g>
<!-- 6&#45;&gt;2 -->
<g id="edge6" class="edge">
<title>6&#45;&gt;2</title>
<path fill="none" stroke="grey" stroke-width="2" d="M589.96,-215.97C622.8,-206.06 664.37,-193.51 698.81,-183.12"/>
<polygon fill="grey" stroke="grey" stroke-width="2" points="700.23,-186.35 708.79,-180.11 698.21,-179.65 700.23,-186.35"/>
</g>
<!-- 7 -->
<g id="node8" class="node">
<title>7</title>
<path fill="none" stroke="#56c1d8" stroke-width="2" stroke-dasharray="5,2" d="M745,-252C745,-252 632,-252 632,-252 626,-252 620,-246 620,-240 620,-240 620,-228 620,-228 620,-222 626,-216 632,-216 632,-216 745,-216 745,-216 751,-216 757,-222 757,-228 757,-228 757,-240 757,-240 757,-246 751,-252 745,-252"/>
<text text-anchor="middle" x="688.5" y="-231.5" font-family="sans" font-size="10.00">get_sequence_measures</text>
</g>
<!-- 7&#45;&gt;2 -->
<g id="edge7" class="edge">
<title>7&#45;&gt;2</title>
<path fill="none" stroke="grey" stroke-width="2" d="M707.53,-215.7C717.04,-207.05 728.71,-196.45 739.07,-187.03"/>
<polygon fill="grey" stroke="grey" stroke-width="2" points="741.64,-189.42 746.69,-180.1 736.93,-184.24 741.64,-189.42"/>
</g>
<!-- 8 -->
<g id="node9" class="node">
<title>8</title>
<path fill="none" stroke="#56c1d8" stroke-width="2" stroke-dasharray="5,2" d="M900,-252C900,-252 787,-252 787,-252 781,-252 775,-246 775,-240 775,-240 775,-228 775,-228 775,-222 781,-216 787,-216 787,-216 900,-216 900,-216 906,-216 912,-222 912,-228 912,-228 912,-240 912,-240 912,-246 906,-252 900,-252"/>
<text text-anchor="middle" x="843.5" y="-231.5" font-family="sans" font-size="10.00">get_sequence_measures</text>
</g>
<!-- 8&#45;&gt;2 -->
<g id="edge8" class="edge">
<title>8&#45;&gt;2</title>
<path fill="none" stroke="grey" stroke-width="2" d="M824.22,-215.7C814.58,-207.05 802.77,-196.45 792.27,-187.03"/>
<polygon fill="grey" stroke="grey" stroke-width="2" points="794.34,-184.18 784.56,-180.1 789.66,-189.39 794.34,-184.18"/>
</g>
<!-- 9 -->
<g id="node10" class="node">
<title>9</title>
<path fill="none" stroke="#56c1d8" stroke-width="2" stroke-dasharray="5,2" d="M1055,-252C1055,-252 942,-252 942,-252 936,-252 930,-246 930,-240 930,-240 930,-228 930,-228 930,-222 936,-216 942,-216 942,-216 1055,-216 1055,-216 1061,-216 1067,-222 1067,-228 1067,-228 1067,-240 1067,-240 1067,-246 1061,-252 1055,-252"/>
<text text-anchor="middle" x="998.5" y="-231.5" font-family="sans" font-size="10.00">get_sequence_measures</text>
</g>
<!-- 9&#45;&gt;2 -->
<g id="edge9" class="edge">
<title>9&#45;&gt;2</title>
<path fill="none" stroke="grey" stroke-width="2" d="M941.8,-215.97C908.82,-206.06 867.07,-193.51 832.47,-183.12"/>
<polygon fill="grey" stroke="grey" stroke-width="2" points="833.04,-179.64 822.45,-180.11 831.02,-186.34 833.04,-179.64"/>
</g>
<!-- 10 -->
<g id="node11" class="node">
<title>10</title>
<path fill="none" stroke="#56c1d8" stroke-width="2" stroke-dasharray="5,2" d="M1210,-252C1210,-252 1097,-252 1097,-252 1091,-252 1085,-246 1085,-240 1085,-240 1085,-228 1085,-228 1085,-222 1091,-216 1097,-216 1097,-216 1210,-216 1210,-216 1216,-216 1222,-222 1222,-228 1222,-228 1222,-240 1222,-240 1222,-246 1216,-252 1210,-252"/>
<text text-anchor="middle" x="1153.5" y="-231.5" font-family="sans" font-size="10.00">get_sequence_measures</text>
</g>
<!-- 10&#45;&gt;2 -->
<g id="edge10" class="edge">
<title>10&#45;&gt;2</title>
<path fill="none" stroke="grey" stroke-width="2" d="M1084.69,-217.63C1081.92,-217.07 1079.19,-216.53 1076.5,-216 1003.18,-201.67 919.69,-187.56 857.7,-177.51"/>
<polygon fill="grey" stroke="grey" stroke-width="2" points="857.98,-174.01 847.55,-175.87 856.86,-180.92 857.98,-174.01"/>
</g>
<!-- 11 -->
<g id="node12" class="node">
<title>11</title>
<path fill="none" stroke="#56c1d8" stroke-width="2" stroke-dasharray="5,2" d="M1365,-252C1365,-252 1252,-252 1252,-252 1246,-252 1240,-246 1240,-240 1240,-240 1240,-228 1240,-228 1240,-222 1246,-216 1252,-216 1252,-216 1365,-216 1365,-216 1371,-216 1377,-222 1377,-228 1377,-228 1377,-240 1377,-240 1377,-246 1371,-252 1365,-252"/>
<text text-anchor="middle" x="1308.5" y="-231.5" font-family="sans" font-size="10.00">get_sequence_measures</text>
</g>
<!-- 11&#45;&gt;2 -->
<g id="edge11" class="edge">
<title>11&#45;&gt;2</title>
<path fill="none" stroke="grey" stroke-width="2" d="M1239.72,-217.44C1236.95,-216.93 1234.2,-216.45 1231.5,-216 1102.48,-194.48 951.88,-179.1 857.59,-170.62"/>
<polygon fill="grey" stroke="grey" stroke-width="2" points="857.78,-167.13 847.51,-169.73 857.16,-174.1 857.78,-167.13"/>
</g>
<!-- 12 -->
<g id="node13" class="node">
<title>12</title>
<path fill="none" stroke="#56c1d8" stroke-width="2" stroke-dasharray="5,2" d="M1520,-252C1520,-252 1407,-252 1407,-252 1401,-252 1395,-246 1395,-240 1395,-240 1395,-228 1395,-228 1395,-222 1401,-216 1407,-216 1407,-216 1520,-216 1520,-216 1526,-216 1532,-222 1532,-228 1532,-228 1532,-240 1532,-240 1532,-246 1526,-252 1520,-252"/>
<text text-anchor="middle" x="1463.5" y="-231.5" font-family="sans" font-size="10.00">get_sequence_measures</text>
</g>
<!-- 12&#45;&gt;2 -->
<g id="edge12" class="edge">
<title>12&#45;&gt;2</title>
<path fill="none" stroke="grey" stroke-width="2" d="M1394.74,-217.35C1391.96,-216.86 1389.21,-216.41 1386.5,-216 1200,-187.58 979.49,-173.29 857.81,-167.06"/>
<polygon fill="grey" stroke="grey" stroke-width="2" points="857.94,-163.57 847.78,-166.56 857.59,-170.56 857.94,-163.57"/>
</g>
<!-- 13 -->
<g id="node14" class="node">
<title>13</title>
<path fill="none" stroke="#d8bc56" stroke-width="2" stroke-dasharray="5,2" d="M120.5,-324C120.5,-324 16.5,-324 16.5,-324 10.5,-324 4.5,-318 4.5,-312 4.5,-312 4.5,-300 4.5,-300 4.5,-294 10.5,-288 16.5,-288 16.5,-288 120.5,-288 120.5,-288 126.5,-288 132.5,-294 132.5,-300 132.5,-300 132.5,-312 132.5,-312 132.5,-318 126.5,-324 120.5,-324"/>
<text text-anchor="middle" x="68.5" y="-309" font-family="sans" font-size="10.00">convert_fastq_to_fasta</text>
<text text-anchor="middle" x="68.5" y="-298" font-family="sans" font-size="10.00">sample: MA.B.S1_R1</text>
</g>
<!-- 13&#45;&gt;3 -->
<g id="edge13" class="edge">
<title>13&#45;&gt;3</title>
<path fill="none" stroke="grey" stroke-width="2" d="M68.5,-287.7C68.5,-279.98 68.5,-270.71 68.5,-262.11"/>
<polygon fill="grey" stroke="grey" stroke-width="2" points="72,-262.1 68.5,-252.1 65,-262.1 72,-262.1"/>
</g>
<!-- 14 -->
<g id="node15" class="node">
<title>14</title>
<path fill="none" stroke="#d8bc56" stroke-width="2" stroke-dasharray="5,2" d="M275.5,-324C275.5,-324 171.5,-324 171.5,-324 165.5,-324 159.5,-318 159.5,-312 159.5,-312 159.5,-300 159.5,-300 159.5,-294 165.5,-288 171.5,-288 171.5,-288 275.5,-288 275.5,-288 281.5,-288 287.5,-294 287.5,-300 287.5,-300 287.5,-312 287.5,-312 287.5,-318 281.5,-324 275.5,-324"/>
<text text-anchor="middle" x="223.5" y="-309" font-family="sans" font-size="10.00">convert_fastq_to_fasta</text>
<text text-anchor="middle" x="223.5" y="-298" font-family="sans" font-size="10.00">sample: MA.B.F_R1</text>
</g>
<!-- 14&#45;&gt;4 -->
<g id="edge14" class="edge">
<title>14&#45;&gt;4</title>
<path fill="none" stroke="grey" stroke-width="2" d="M223.5,-287.7C223.5,-279.98 223.5,-270.71 223.5,-262.11"/>
<polygon fill="grey" stroke="grey" stroke-width="2" points="227,-262.1 223.5,-252.1 220,-262.1 227,-262.1"/>
</g>
<!-- 15 -->
<g id="node16" class="node">
<title>15</title>
<path fill="none" stroke="#d8bc56" stroke-width="2" stroke-dasharray="5,2" d="M430.5,-324C430.5,-324 326.5,-324 326.5,-324 320.5,-324 314.5,-318 314.5,-312 314.5,-312 314.5,-300 314.5,-300 314.5,-294 320.5,-288 326.5,-288 326.5,-288 430.5,-288 430.5,-288 436.5,-288 442.5,-294 442.5,-300 442.5,-300 442.5,-312 442.5,-312 442.5,-318 436.5,-324 430.5,-324"/>
<text text-anchor="middle" x="378.5" y="-309" font-family="sans" font-size="10.00">convert_fastq_to_fasta</text>
<text text-anchor="middle" x="378.5" y="-298" font-family="sans" font-size="10.00">sample: MA.B.E_R1</text>
</g>
<!-- 15&#45;&gt;5 -->
<g id="edge15" class="edge">
<title>15&#45;&gt;5</title>
<path fill="none" stroke="grey" stroke-width="2" d="M378.5,-287.7C378.5,-279.98 378.5,-270.71 378.5,-262.11"/>
<polygon fill="grey" stroke="grey" stroke-width="2" points="382,-262.1 378.5,-252.1 375,-262.1 382,-262.1"/>
</g>
<!-- 16 -->
<g id="node17" class="node">
<title>16</title>
<path fill="none" stroke="#d8bc56" stroke-width="2" stroke-dasharray="5,2" d="M585.5,-324C585.5,-324 481.5,-324 481.5,-324 475.5,-324 469.5,-318 469.5,-312 469.5,-312 469.5,-300 469.5,-300 469.5,-294 475.5,-288 481.5,-288 481.5,-288 585.5,-288 585.5,-288 591.5,-288 597.5,-294 597.5,-300 597.5,-300 597.5,-312 597.5,-312 597.5,-318 591.5,-324 585.5,-324"/>
<text text-anchor="middle" x="533.5" y="-309" font-family="sans" font-size="10.00">convert_fastq_to_fasta</text>
<text text-anchor="middle" x="533.5" y="-298" font-family="sans" font-size="10.00">sample: MA.C.B_R1</text>
</g>
<!-- 16&#45;&gt;6 -->
<g id="edge16" class="edge">
<title>16&#45;&gt;6</title>
<path fill="none" stroke="grey" stroke-width="2" d="M533.5,-287.7C533.5,-279.98 533.5,-270.71 533.5,-262.11"/>
<polygon fill="grey" stroke="grey" stroke-width="2" points="537,-262.1 533.5,-252.1 530,-262.1 537,-262.1"/>
</g>
<!-- 17 -->
<g id="node18" class="node">
<title>17</title>
<path fill="none" stroke="#d8bc56" stroke-width="2" stroke-dasharray="5,2" d="M740.5,-324C740.5,-324 636.5,-324 636.5,-324 630.5,-324 624.5,-318 624.5,-312 624.5,-312 624.5,-300 624.5,-300 624.5,-294 630.5,-288 636.5,-288 636.5,-288 740.5,-288 740.5,-288 746.5,-288 752.5,-294 752.5,-300 752.5,-300 752.5,-312 752.5,-312 752.5,-318 746.5,-324 740.5,-324"/>
<text text-anchor="middle" x="688.5" y="-309" font-family="sans" font-size="10.00">convert_fastq_to_fasta</text>
<text text-anchor="middle" x="688.5" y="-298" font-family="sans" font-size="10.00">sample: MA.B.S2_R1</text>
</g>
<!-- 17&#45;&gt;7 -->
<g id="edge17" class="edge">
<title>17&#45;&gt;7</title>
<path fill="none" stroke="grey" stroke-width="2" d="M688.5,-287.7C688.5,-279.98 688.5,-270.71 688.5,-262.11"/>
<polygon fill="grey" stroke="grey" stroke-width="2" points="692,-262.1 688.5,-252.1 685,-262.1 692,-262.1"/>
</g>
<!-- 18 -->
<g id="node19" class="node">
<title>18</title>
<path fill="none" stroke="#d8bc56" stroke-width="2" stroke-dasharray="5,2" d="M895.5,-324C895.5,-324 791.5,-324 791.5,-324 785.5,-324 779.5,-318 779.5,-312 779.5,-312 779.5,-300 779.5,-300 779.5,-294 785.5,-288 791.5,-288 791.5,-288 895.5,-288 895.5,-288 901.5,-288 907.5,-294 907.5,-300 907.5,-300 907.5,-312 907.5,-312 907.5,-318 901.5,-324 895.5,-324"/>
<text text-anchor="middle" x="843.5" y="-309" font-family="sans" font-size="10.00">convert_fastq_to_fasta</text>
<text text-anchor="middle" x="843.5" y="-298" font-family="sans" font-size="10.00">sample: MA.C.A_R1</text>
</g>
<!-- 18&#45;&gt;8 -->
<g id="edge18" class="edge">
<title>18&#45;&gt;8</title>
<path fill="none" stroke="grey" stroke-width="2" d="M843.5,-287.7C843.5,-279.98 843.5,-270.71 843.5,-262.11"/>
<polygon fill="grey" stroke="grey" stroke-width="2" points="847,-262.1 843.5,-252.1 840,-262.1 847,-262.1"/>
</g>
<!-- 19 -->
<g id="node20" class="node">
<title>19</title>
<path fill="none" stroke="#d8bc56" stroke-width="2" stroke-dasharray="5,2" d="M1050.5,-324C1050.5,-324 946.5,-324 946.5,-324 940.5,-324 934.5,-318 934.5,-312 934.5,-312 934.5,-300 934.5,-300 934.5,-294 940.5,-288 946.5,-288 946.5,-288 1050.5,-288 1050.5,-288 1056.5,-288 1062.5,-294 1062.5,-300 1062.5,-300 1062.5,-312 1062.5,-312 1062.5,-318 1056.5,-324 1050.5,-324"/>
<text text-anchor="middle" x="998.5" y="-309" font-family="sans" font-size="10.00">convert_fastq_to_fasta</text>
<text text-anchor="middle" x="998.5" y="-298" font-family="sans" font-size="10.00">sample: 21AL.B_R1</text>
</g>
<!-- 19&#45;&gt;9 -->
<g id="edge19" class="edge">
<title>19&#45;&gt;9</title>
<path fill="none" stroke="grey" stroke-width="2" d="M998.5,-287.7C998.5,-279.98 998.5,-270.71 998.5,-262.11"/>
<polygon fill="grey" stroke="grey" stroke-width="2" points="1002,-262.1 998.5,-252.1 995,-262.1 1002,-262.1"/>
</g>
<!-- 20 -->
<g id="node21" class="node">
<title>20</title>
<path fill="none" stroke="#d8bc56" stroke-width="2" stroke-dasharray="5,2" d="M1205.5,-324C1205.5,-324 1101.5,-324 1101.5,-324 1095.5,-324 1089.5,-318 1089.5,-312 1089.5,-312 1089.5,-300 1089.5,-300 1089.5,-294 1095.5,-288 1101.5,-288 1101.5,-288 1205.5,-288 1205.5,-288 1211.5,-288 1217.5,-294 1217.5,-300 1217.5,-300 1217.5,-312 1217.5,-312 1217.5,-318 1211.5,-324 1205.5,-324"/>
<text text-anchor="middle" x="1153.5" y="-309" font-family="sans" font-size="10.00">convert_fastq_to_fasta</text>
<text text-anchor="middle" x="1153.5" y="-298" font-family="sans" font-size="10.00">sample: MA.B.S3_R1</text>
</g>
<!-- 20&#45;&gt;10 -->
<g id="edge20" class="edge">
<title>20&#45;&gt;10</title>
<path fill="none" stroke="grey" stroke-width="2" d="M1153.5,-287.7C1153.5,-279.98 1153.5,-270.71 1153.5,-262.11"/>
<polygon fill="grey" stroke="grey" stroke-width="2" points="1157,-262.1 1153.5,-252.1 1150,-262.1 1157,-262.1"/>
</g>
<!-- 21 -->
<g id="node22" class="node">
<title>21</title>
<path fill="none" stroke="#d8bc56" stroke-width="2" stroke-dasharray="5,2" d="M1360.5,-324C1360.5,-324 1256.5,-324 1256.5,-324 1250.5,-324 1244.5,-318 1244.5,-312 1244.5,-312 1244.5,-300 1244.5,-300 1244.5,-294 1250.5,-288 1256.5,-288 1256.5,-288 1360.5,-288 1360.5,-288 1366.5,-288 1372.5,-294 1372.5,-300 1372.5,-300 1372.5,-312 1372.5,-312 1372.5,-318 1366.5,-324 1360.5,-324"/>
<text text-anchor="middle" x="1308.5" y="-309" font-family="sans" font-size="10.00">convert_fastq_to_fasta</text>
<text text-anchor="middle" x="1308.5" y="-298" font-family="sans" font-size="10.00">sample: 21AL.C_R1</text>
</g>
<!-- 21&#45;&gt;11 -->
<g id="edge21" class="edge">
<title>21&#45;&gt;11</title>
<path fill="none" stroke="grey" stroke-width="2" d="M1308.5,-287.7C1308.5,-279.98 1308.5,-270.71 1308.5,-262.11"/>
<polygon fill="grey" stroke="grey" stroke-width="2" points="1312,-262.1 1308.5,-252.1 1305,-262.1 1312,-262.1"/>
</g>
<!-- 22 -->
<g id="node23" class="node">
<title>22</title>
<path fill="none" stroke="#d8bc56" stroke-width="2" stroke-dasharray="5,2" d="M1515.5,-324C1515.5,-324 1411.5,-324 1411.5,-324 1405.5,-324 1399.5,-318 1399.5,-312 1399.5,-312 1399.5,-300 1399.5,-300 1399.5,-294 1405.5,-288 1411.5,-288 1411.5,-288 1515.5,-288 1515.5,-288 1521.5,-288 1527.5,-294 1527.5,-300 1527.5,-300 1527.5,-312 1527.5,-312 1527.5,-318 1521.5,-324 1515.5,-324"/>
<text text-anchor="middle" x="1463.5" y="-309" font-family="sans" font-size="10.00">convert_fastq_to_fasta</text>
<text text-anchor="middle" x="1463.5" y="-298" font-family="sans" font-size="10.00">sample: 21AL.A_R1</text>
</g>
<!-- 22&#45;&gt;12 -->
<g id="edge22" class="edge">
<title>22&#45;&gt;12</title>
<path fill="none" stroke="grey" stroke-width="2" d="M1463.5,-287.7C1463.5,-279.98 1463.5,-270.71 1463.5,-262.11"/>
<polygon fill="grey" stroke="grey" stroke-width="2" points="1467,-262.1 1463.5,-252.1 1460,-262.1 1467,-262.1"/>
</g>
</g>
</svg>
