<?xml version="1.0" encoding="UTF-8" standalone="no"?>
<!DOCTYPE svg PUBLIC "-//W3C//DTD SVG 1.1//EN"
 "http://www.w3.org/Graphics/SVG/1.1/DTD/svg11.dtd">
<!-- Generated by graphviz version 2.43.0 (0)
 -->
<!-- Title: snakemake_dag Pages: 1 -->
<svg width="455pt" height="332pt"
 viewBox="0.00 0.00 455.00 332.00" xmlns="http://www.w3.org/2000/svg" xmlns:xlink="http://www.w3.org/1999/xlink">
<g id="graph0" class="graph" transform="scale(1 1) rotate(0) translate(4 328)">
<title>snakemake_dag</title>
<polygon fill="white" stroke="transparent" points="-4,4 -4,-328 451,-328 451,4 -4,4"/>
<!-- 0 -->
<g id="node1" class="node">
<title>0</title>
<path fill="none" stroke="#56d88a" stroke-width="2" stroke-dasharray="5,2" d="M238.5,-36C238.5,-36 208.5,-36 208.5,-36 202.5,-36 196.5,-30 196.5,-24 196.5,-24 196.5,-12 196.5,-12 196.5,-6 202.5,0 208.5,0 208.5,0 238.5,0 238.5,0 244.5,0 250.5,-6 250.5,-12 250.5,-12 250.5,-24 250.5,-24 250.5,-30 244.5,-36 238.5,-36"/>
<text text-anchor="middle" x="223.5" y="-15.5" font-family="sans" font-size="10.00">all</text>
</g>
<!-- 1 -->
<g id="node2" class="node">
<title>1</title>
<path fill="none" stroke="#d85656" stroke-width="2" stroke-dasharray="5,2" d="M267.5,-108C267.5,-108 179.5,-108 179.5,-108 173.5,-108 167.5,-102 167.5,-96 167.5,-96 167.5,-84 167.5,-84 167.5,-78 173.5,-72 179.5,-72 179.5,-72 267.5,-72 267.5,-72 273.5,-72 279.5,-78 279.5,-84 279.5,-84 279.5,-96 279.5,-96 279.5,-102 273.5,-108 267.5,-108"/>
<text text-anchor="middle" x="223.5" y="-87.5" font-family="sans" font-size="10.00">visualize_summary</text>
</g>
<!-- 1&#45;&gt;0 -->
<g id="edge1" class="edge">
<title>1&#45;&gt;0</title>
<path fill="none" stroke="grey" stroke-width="2" d="M223.5,-71.7C223.5,-63.98 223.5,-54.71 223.5,-46.11"/>
<polygon fill="grey" stroke="grey" stroke-width="2" points="227,-46.1 223.5,-36.1 220,-46.1 227,-46.1"/>
</g>
<!-- 2 -->
<g id="node3" class="node">
<title>2</title>
<path fill="none" stroke="#56c1d8" stroke-width="2" stroke-dasharray="5,2" d="M293.5,-180C293.5,-180 153.5,-180 153.5,-180 147.5,-180 141.5,-174 141.5,-168 141.5,-168 141.5,-156 141.5,-156 141.5,-150 147.5,-144 153.5,-144 153.5,-144 293.5,-144 293.5,-144 299.5,-144 305.5,-150 305.5,-156 305.5,-156 305.5,-168 305.5,-168 305.5,-174 299.5,-180 293.5,-180"/>
<text text-anchor="middle" x="223.5" y="-159.5" font-family="sans" font-size="10.00">combine_sequence_measures</text>
</g>
<!-- 2&#45;&gt;1 -->
<g id="edge2" class="edge">
<title>2&#45;&gt;1</title>
<path fill="none" stroke="grey" stroke-width="2" d="M223.5,-143.7C223.5,-135.98 223.5,-126.71 223.5,-118.11"/>
<polygon fill="grey" stroke="grey" stroke-width="2" points="227,-118.1 223.5,-108.1 220,-118.1 227,-118.1"/>
</g>
<!-- 3 -->
<g id="node4" class="node">
<title>3</title>
<path fill="none" stroke="#88d856" stroke-width="2" stroke-dasharray="5,2" d="M125,-252C125,-252 12,-252 12,-252 6,-252 0,-246 0,-240 0,-240 0,-228 0,-228 0,-222 6,-216 12,-216 12,-216 125,-216 125,-216 131,-216 137,-222 137,-228 137,-228 137,-240 137,-240 137,-246 131,-252 125,-252"/>
<text text-anchor="middle" x="68.5" y="-231.5" font-family="sans" font-size="10.00">get_sequence_measures</text>
</g>
<!-- 3&#45;&gt;2 -->
<g id="edge3" class="edge">
<title>3&#45;&gt;2</title>
<path fill="none" stroke="grey" stroke-width="2" d="M106.42,-215.88C127.51,-206.35 153.96,-194.41 176.37,-184.28"/>
<polygon fill="grey" stroke="grey" stroke-width="2" points="178.03,-187.37 185.71,-180.07 175.15,-180.99 178.03,-187.37"/>
</g>
<!-- 4 -->
<g id="node5" class="node">
<title>4</title>
<path fill="none" stroke="#88d856" stroke-width="2" stroke-dasharray="5,2" d="M280,-252C280,-252 167,-252 167,-252 161,-252 155,-246 155,-240 155,-240 155,-228 155,-228 155,-222 161,-216 167,-216 167,-216 280,-216 280,-216 286,-216 292,-222 292,-228 292,-228 292,-240 292,-240 292,-246 286,-252 280,-252"/>
<text text-anchor="middle" x="223.5" y="-231.5" font-family="sans" font-size="10.00">get_sequence_measures</text>
</g>
<!-- 4&#45;&gt;2 -->
<g id="edge4" class="edge">
<title>4&#45;&gt;2</title>
<path fill="none" stroke="grey" stroke-width="2" d="M223.5,-215.7C223.5,-207.98 223.5,-198.71 223.5,-190.11"/>
<polygon fill="grey" stroke="grey" stroke-width="2" points="227,-190.1 223.5,-180.1 220,-190.1 227,-190.1"/>
</g>
<!-- 5 -->
<g id="node6" class="node">
<title>5</title>
<path fill="none" stroke="#88d856" stroke-width="2" stroke-dasharray="5,2" d="M435,-252C435,-252 322,-252 322,-252 316,-252 310,-246 310,-240 310,-240 310,-228 310,-228 310,-222 316,-216 322,-216 322,-216 435,-216 435,-216 441,-216 447,-222 447,-228 447,-228 447,-240 447,-240 447,-246 441,-252 435,-252"/>
<text text-anchor="middle" x="378.5" y="-231.5" font-family="sans" font-size="10.00">get_sequence_measures</text>
</g>
<!-- 5&#45;&gt;2 -->
<g id="edge5" class="edge">
<title>5&#45;&gt;2</title>
<path fill="none" stroke="grey" stroke-width="2" d="M340.58,-215.88C319.49,-206.35 293.04,-194.41 270.63,-184.28"/>
<polygon fill="grey" stroke="grey" stroke-width="2" points="271.85,-180.99 261.29,-180.07 268.97,-187.37 271.85,-180.99"/>
</g>
<!-- 6 -->
<g id="node7" class="node">
<title>6</title>
<path fill="none" stroke="#d8bc56" stroke-width="2" stroke-dasharray="5,2" d="M120.5,-324C120.5,-324 16.5,-324 16.5,-324 10.5,-324 4.5,-318 4.5,-312 4.5,-312 4.5,-300 4.5,-300 4.5,-294 10.5,-288 16.5,-288 16.5,-288 120.5,-288 120.5,-288 126.5,-288 132.5,-294 132.5,-300 132.5,-300 132.5,-312 132.5,-312 132.5,-318 126.5,-324 120.5,-324"/>
<text text-anchor="middle" x="68.5" y="-309" font-family="sans" font-size="10.00">convert_fastq_to_fasta</text>
<text text-anchor="middle" x="68.5" y="-298" font-family="sans" font-size="10.00">sample: 21AL.A_R1</text>
</g>
<!-- 6&#45;&gt;3 -->
<g id="edge6" class="edge">
<title>6&#45;&gt;3</title>
<path fill="none" stroke="grey" stroke-width="2" d="M68.5,-287.7C68.5,-279.98 68.5,-270.71 68.5,-262.11"/>
<polygon fill="grey" stroke="grey" stroke-width="2" points="72,-262.1 68.5,-252.1 65,-262.1 72,-262.1"/>
</g>
<!-- 7 -->
<g id="node8" class="node">
<title>7</title>
<path fill="none" stroke="#d8bc56" stroke-width="2" stroke-dasharray="5,2" d="M275.5,-324C275.5,-324 171.5,-324 171.5,-324 165.5,-324 159.5,-318 159.5,-312 159.5,-312 159.5,-300 159.5,-300 159.5,-294 165.5,-288 171.5,-288 171.5,-288 275.5,-288 275.5,-288 281.5,-288 287.5,-294 287.5,-300 287.5,-300 287.5,-312 287.5,-312 287.5,-318 281.5,-324 275.5,-324"/>
<text text-anchor="middle" x="223.5" y="-309" font-family="sans" font-size="10.00">convert_fastq_to_fasta</text>
<text text-anchor="middle" x="223.5" y="-298" font-family="sans" font-size="10.00">sample: MA.B.E_R1</text>
</g>
<!-- 7&#45;&gt;4 -->
<g id="edge7" class="edge">
<title>7&#45;&gt;4</title>
<path fill="none" stroke="grey" stroke-width="2" d="M223.5,-287.7C223.5,-279.98 223.5,-270.71 223.5,-262.11"/>
<polygon fill="grey" stroke="grey" stroke-width="2" points="227,-262.1 223.5,-252.1 220,-262.1 227,-262.1"/>
</g>
<!-- 8 -->
<g id="node9" class="node">
<title>8</title>
<path fill="none" stroke="#d8bc56" stroke-width="2" stroke-dasharray="5,2" d="M430.5,-324C430.5,-324 326.5,-324 326.5,-324 320.5,-324 314.5,-318 314.5,-312 314.5,-312 314.5,-300 314.5,-300 314.5,-294 320.5,-288 326.5,-288 326.5,-288 430.5,-288 430.5,-288 436.5,-288 442.5,-294 442.5,-300 442.5,-300 442.5,-312 442.5,-312 442.5,-318 436.5,-324 430.5,-324"/>
<text text-anchor="middle" x="378.5" y="-309" font-family="sans" font-size="10.00">convert_fastq_to_fasta</text>
<text text-anchor="middle" x="378.5" y="-298" font-family="sans" font-size="10.00">sample: MA.C.A_R1</text>
</g>
<!-- 8&#45;&gt;5 -->
<g id="edge8" class="edge">
<title>8&#45;&gt;5</title>
<path fill="none" stroke="grey" stroke-width="2" d="M378.5,-287.7C378.5,-279.98 378.5,-270.71 378.5,-262.11"/>
<polygon fill="grey" stroke="grey" stroke-width="2" points="382,-262.1 378.5,-252.1 375,-262.1 382,-262.1"/>
</g>
</g>
</svg>
