<?xml version="1.0" encoding="UTF-8" standalone="no"?>
<!DOCTYPE svg PUBLIC "-//W3C//DTD SVG 1.1//EN"
 "http://www.w3.org/Graphics/SVG/1.1/DTD/svg11.dtd">
<!-- Generated by graphviz version 2.43.0 (0)
 -->
<!-- Title: snakemake_dag Pages: 1 -->
<svg width="1540pt" height="188pt"
 viewBox="0.00 0.00 1540.00 188.00" xmlns="http://www.w3.org/2000/svg" xmlns:xlink="http://www.w3.org/1999/xlink">
<g id="graph0" class="graph" transform="scale(1 1) rotate(0) translate(4 184)">
<title>snakemake_dag</title>
<polygon fill="white" stroke="transparent" points="-4,4 -4,-184 1536,-184 1536,4 -4,4"/>
<!-- 0 -->
<g id="node1" class="node">
<title>0</title>
<path fill="none" stroke="#d85656" stroke-width="2" stroke-dasharray="5,2" d="M780.5,-36C780.5,-36 750.5,-36 750.5,-36 744.5,-36 738.5,-30 738.5,-24 738.5,-24 738.5,-12 738.5,-12 738.5,-6 744.5,0 750.5,0 750.5,0 780.5,0 780.5,0 786.5,0 792.5,-6 792.5,-12 792.5,-12 792.5,-24 792.5,-24 792.5,-30 786.5,-36 780.5,-36"/>
<text text-anchor="middle" x="765.5" y="-15.5" font-family="sans" font-size="10.00">all</text>
</g>
<!-- 1 -->
<g id="node2" class="node">
<title>1</title>
<path fill="none" stroke="#56d8a9" stroke-width="2" stroke-dasharray="5,2" d="M125,-108C125,-108 12,-108 12,-108 6,-108 0,-102 0,-96 0,-96 0,-84 0,-84 0,-78 6,-72 12,-72 12,-72 125,-72 125,-72 131,-72 137,-78 137,-84 137,-84 137,-96 137,-96 137,-102 131,-108 125,-108"/>
<text text-anchor="middle" x="68.5" y="-87.5" font-family="sans" font-size="10.00">get_sequence_measures</text>
</g>
<!-- 1&#45;&gt;0 -->
<g id="edge1" class="edge">
<title>1&#45;&gt;0</title>
<path fill="none" stroke="grey" stroke-width="2" d="M137.26,-73.35C140.04,-72.86 142.79,-72.41 145.5,-72 365.02,-38.53 631.72,-24.64 728.32,-20.46"/>
<polygon fill="grey" stroke="grey" stroke-width="2" points="728.62,-23.96 738.46,-20.04 728.32,-16.96 728.62,-23.96"/>
</g>
<!-- 2 -->
<g id="node3" class="node">
<title>2</title>
<path fill="none" stroke="#56d8a9" stroke-width="2" stroke-dasharray="5,2" d="M280,-108C280,-108 167,-108 167,-108 161,-108 155,-102 155,-96 155,-96 155,-84 155,-84 155,-78 161,-72 167,-72 167,-72 280,-72 280,-72 286,-72 292,-78 292,-84 292,-84 292,-96 292,-96 292,-102 286,-108 280,-108"/>
<text text-anchor="middle" x="223.5" y="-87.5" font-family="sans" font-size="10.00">get_sequence_measures</text>
</g>
<!-- 2&#45;&gt;0 -->
<g id="edge2" class="edge">
<title>2&#45;&gt;0</title>
<path fill="none" stroke="grey" stroke-width="2" d="M292.33,-73.6C295.42,-73.04 298.49,-72.5 301.5,-72 459.07,-45.9 648.88,-28.59 728.01,-21.99"/>
<polygon fill="grey" stroke="grey" stroke-width="2" points="728.75,-25.44 738.43,-21.13 728.18,-18.46 728.75,-25.44"/>
</g>
<!-- 3 -->
<g id="node4" class="node">
<title>3</title>
<path fill="none" stroke="#56d8a9" stroke-width="2" stroke-dasharray="5,2" d="M435,-108C435,-108 322,-108 322,-108 316,-108 310,-102 310,-96 310,-96 310,-84 310,-84 310,-78 316,-72 322,-72 322,-72 435,-72 435,-72 441,-72 447,-78 447,-84 447,-84 447,-96 447,-96 447,-102 441,-108 435,-108"/>
<text text-anchor="middle" x="378.5" y="-87.5" font-family="sans" font-size="10.00">get_sequence_measures</text>
</g>
<!-- 3&#45;&gt;0 -->
<g id="edge3" class="edge">
<title>3&#45;&gt;0</title>
<path fill="none" stroke="grey" stroke-width="2" d="M447.37,-73.82C450.45,-73.19 453.51,-72.58 456.5,-72 554.07,-53.01 669.69,-34.14 727.95,-24.88"/>
<polygon fill="grey" stroke="grey" stroke-width="2" points="728.81,-28.29 738.14,-23.27 727.72,-21.38 728.81,-28.29"/>
</g>
<!-- 4 -->
<g id="node5" class="node">
<title>4</title>
<path fill="none" stroke="#56d8a9" stroke-width="2" stroke-dasharray="5,2" d="M590,-108C590,-108 477,-108 477,-108 471,-108 465,-102 465,-96 465,-96 465,-84 465,-84 465,-78 471,-72 477,-72 477,-72 590,-72 590,-72 596,-72 602,-78 602,-84 602,-84 602,-96 602,-96 602,-102 596,-108 590,-108"/>
<text text-anchor="middle" x="533.5" y="-87.5" font-family="sans" font-size="10.00">get_sequence_measures</text>
</g>
<!-- 4&#45;&gt;0 -->
<g id="edge4" class="edge">
<title>4&#45;&gt;0</title>
<path fill="none" stroke="grey" stroke-width="2" d="M589.96,-71.97C632.99,-58.98 691.02,-41.47 728.36,-30.21"/>
<polygon fill="grey" stroke="grey" stroke-width="2" points="729.75,-33.44 738.31,-27.2 727.72,-26.74 729.75,-33.44"/>
</g>
<!-- 5 -->
<g id="node6" class="node">
<title>5</title>
<path fill="none" stroke="#56d8a9" stroke-width="2" stroke-dasharray="5,2" d="M745,-108C745,-108 632,-108 632,-108 626,-108 620,-102 620,-96 620,-96 620,-84 620,-84 620,-78 626,-72 632,-72 632,-72 745,-72 745,-72 751,-72 757,-78 757,-84 757,-84 757,-96 757,-96 757,-102 751,-108 745,-108"/>
<text text-anchor="middle" x="688.5" y="-87.5" font-family="sans" font-size="10.00">get_sequence_measures</text>
</g>
<!-- 5&#45;&gt;0 -->
<g id="edge5" class="edge">
<title>5&#45;&gt;0</title>
<path fill="none" stroke="grey" stroke-width="2" d="M707.53,-71.7C717.04,-63.05 728.71,-52.45 739.07,-43.03"/>
<polygon fill="grey" stroke="grey" stroke-width="2" points="741.64,-45.42 746.69,-36.1 736.93,-40.24 741.64,-45.42"/>
</g>
<!-- 6 -->
<g id="node7" class="node">
<title>6</title>
<path fill="none" stroke="#56d8a9" stroke-width="2" stroke-dasharray="5,2" d="M900,-108C900,-108 787,-108 787,-108 781,-108 775,-102 775,-96 775,-96 775,-84 775,-84 775,-78 781,-72 787,-72 787,-72 900,-72 900,-72 906,-72 912,-78 912,-84 912,-84 912,-96 912,-96 912,-102 906,-108 900,-108"/>
<text text-anchor="middle" x="843.5" y="-87.5" font-family="sans" font-size="10.00">get_sequence_measures</text>
</g>
<!-- 6&#45;&gt;0 -->
<g id="edge6" class="edge">
<title>6&#45;&gt;0</title>
<path fill="none" stroke="grey" stroke-width="2" d="M824.22,-71.7C814.58,-63.05 802.77,-52.45 792.27,-43.03"/>
<polygon fill="grey" stroke="grey" stroke-width="2" points="794.34,-40.18 784.56,-36.1 789.66,-45.39 794.34,-40.18"/>
</g>
<!-- 7 -->
<g id="node8" class="node">
<title>7</title>
<path fill="none" stroke="#56d8a9" stroke-width="2" stroke-dasharray="5,2" d="M1055,-108C1055,-108 942,-108 942,-108 936,-108 930,-102 930,-96 930,-96 930,-84 930,-84 930,-78 936,-72 942,-72 942,-72 1055,-72 1055,-72 1061,-72 1067,-78 1067,-84 1067,-84 1067,-96 1067,-96 1067,-102 1061,-108 1055,-108"/>
<text text-anchor="middle" x="998.5" y="-87.5" font-family="sans" font-size="10.00">get_sequence_measures</text>
</g>
<!-- 7&#45;&gt;0 -->
<g id="edge7" class="edge">
<title>7&#45;&gt;0</title>
<path fill="none" stroke="grey" stroke-width="2" d="M941.8,-71.97C898.58,-58.98 840.3,-41.47 802.8,-30.21"/>
<polygon fill="grey" stroke="grey" stroke-width="2" points="803.39,-26.73 792.81,-27.2 801.38,-33.43 803.39,-26.73"/>
</g>
<!-- 8 -->
<g id="node9" class="node">
<title>8</title>
<path fill="none" stroke="#56d8a9" stroke-width="2" stroke-dasharray="5,2" d="M1210,-108C1210,-108 1097,-108 1097,-108 1091,-108 1085,-102 1085,-96 1085,-96 1085,-84 1085,-84 1085,-78 1091,-72 1097,-72 1097,-72 1210,-72 1210,-72 1216,-72 1222,-78 1222,-84 1222,-84 1222,-96 1222,-96 1222,-102 1216,-108 1210,-108"/>
<text text-anchor="middle" x="1153.5" y="-87.5" font-family="sans" font-size="10.00">get_sequence_measures</text>
</g>
<!-- 8&#45;&gt;0 -->
<g id="edge8" class="edge">
<title>8&#45;&gt;0</title>
<path fill="none" stroke="grey" stroke-width="2" d="M1084.69,-73.63C1081.92,-73.07 1079.19,-72.53 1076.5,-72 978.07,-52.76 861.34,-33.93 802.85,-24.76"/>
<polygon fill="grey" stroke="grey" stroke-width="2" points="803.04,-21.25 792.62,-23.17 801.96,-28.17 803.04,-21.25"/>
</g>
<!-- 9 -->
<g id="node10" class="node">
<title>9</title>
<path fill="none" stroke="#56d8a9" stroke-width="2" stroke-dasharray="5,2" d="M1365,-108C1365,-108 1252,-108 1252,-108 1246,-108 1240,-102 1240,-96 1240,-96 1240,-84 1240,-84 1240,-78 1246,-72 1252,-72 1252,-72 1365,-72 1365,-72 1371,-72 1377,-78 1377,-84 1377,-84 1377,-96 1377,-96 1377,-102 1371,-108 1365,-108"/>
<text text-anchor="middle" x="1308.5" y="-87.5" font-family="sans" font-size="10.00">get_sequence_measures</text>
</g>
<!-- 9&#45;&gt;0 -->
<g id="edge9" class="edge">
<title>9&#45;&gt;0</title>
<path fill="none" stroke="grey" stroke-width="2" d="M1239.72,-73.44C1236.95,-72.93 1234.2,-72.45 1231.5,-72 1072.97,-45.56 881.86,-28.38 802.67,-21.9"/>
<polygon fill="grey" stroke="grey" stroke-width="2" points="802.94,-18.42 792.69,-21.1 802.37,-25.39 802.94,-18.42"/>
</g>
<!-- 10 -->
<g id="node11" class="node">
<title>10</title>
<path fill="none" stroke="#56d8a9" stroke-width="2" stroke-dasharray="5,2" d="M1520,-108C1520,-108 1407,-108 1407,-108 1401,-108 1395,-102 1395,-96 1395,-96 1395,-84 1395,-84 1395,-78 1401,-72 1407,-72 1407,-72 1520,-72 1520,-72 1526,-72 1532,-78 1532,-84 1532,-84 1532,-96 1532,-96 1532,-102 1526,-108 1520,-108"/>
<text text-anchor="middle" x="1463.5" y="-87.5" font-family="sans" font-size="10.00">get_sequence_measures</text>
</g>
<!-- 10&#45;&gt;0 -->
<g id="edge10" class="edge">
<title>10&#45;&gt;0</title>
<path fill="none" stroke="grey" stroke-width="2" d="M1394.74,-73.35C1391.96,-72.86 1389.21,-72.41 1386.5,-72 1166.63,-38.5 899.5,-24.63 802.74,-20.46"/>
<polygon fill="grey" stroke="grey" stroke-width="2" points="802.72,-16.96 792.58,-20.03 802.43,-23.95 802.72,-16.96"/>
</g>
<!-- 11 -->
<g id="node12" class="node">
<title>11</title>
<path fill="none" stroke="#afd856" stroke-width="2" stroke-dasharray="5,2" d="M120.5,-180C120.5,-180 16.5,-180 16.5,-180 10.5,-180 4.5,-174 4.5,-168 4.5,-168 4.5,-156 4.5,-156 4.5,-150 10.5,-144 16.5,-144 16.5,-144 120.5,-144 120.5,-144 126.5,-144 132.5,-150 132.5,-156 132.5,-156 132.5,-168 132.5,-168 132.5,-174 126.5,-180 120.5,-180"/>
<text text-anchor="middle" x="68.5" y="-165" font-family="sans" font-size="10.00">convert_fastq_to_fasta</text>
<text text-anchor="middle" x="68.5" y="-154" font-family="sans" font-size="10.00">sample: MA.B.S1_R1</text>
</g>
<!-- 11&#45;&gt;1 -->
<g id="edge11" class="edge">
<title>11&#45;&gt;1</title>
<path fill="none" stroke="grey" stroke-width="2" d="M68.5,-143.7C68.5,-135.98 68.5,-126.71 68.5,-118.11"/>
<polygon fill="grey" stroke="grey" stroke-width="2" points="72,-118.1 68.5,-108.1 65,-118.1 72,-118.1"/>
</g>
<!-- 12 -->
<g id="node13" class="node">
<title>12</title>
<path fill="none" stroke="#afd856" stroke-width="2" stroke-dasharray="5,2" d="M275.5,-180C275.5,-180 171.5,-180 171.5,-180 165.5,-180 159.5,-174 159.5,-168 159.5,-168 159.5,-156 159.5,-156 159.5,-150 165.5,-144 171.5,-144 171.5,-144 275.5,-144 275.5,-144 281.5,-144 287.5,-150 287.5,-156 287.5,-156 287.5,-168 287.5,-168 287.5,-174 281.5,-180 275.5,-180"/>
<text text-anchor="middle" x="223.5" y="-165" font-family="sans" font-size="10.00">convert_fastq_to_fasta</text>
<text text-anchor="middle" x="223.5" y="-154" font-family="sans" font-size="10.00">sample: MA.B.F_R1</text>
</g>
<!-- 12&#45;&gt;2 -->
<g id="edge12" class="edge">
<title>12&#45;&gt;2</title>
<path fill="none" stroke="grey" stroke-width="2" d="M223.5,-143.7C223.5,-135.98 223.5,-126.71 223.5,-118.11"/>
<polygon fill="grey" stroke="grey" stroke-width="2" points="227,-118.1 223.5,-108.1 220,-118.1 227,-118.1"/>
</g>
<!-- 13 -->
<g id="node14" class="node">
<title>13</title>
<path fill="none" stroke="#afd856" stroke-width="2" stroke-dasharray="5,2" d="M430.5,-180C430.5,-180 326.5,-180 326.5,-180 320.5,-180 314.5,-174 314.5,-168 314.5,-168 314.5,-156 314.5,-156 314.5,-150 320.5,-144 326.5,-144 326.5,-144 430.5,-144 430.5,-144 436.5,-144 442.5,-150 442.5,-156 442.5,-156 442.5,-168 442.5,-168 442.5,-174 436.5,-180 430.5,-180"/>
<text text-anchor="middle" x="378.5" y="-165" font-family="sans" font-size="10.00">convert_fastq_to_fasta</text>
<text text-anchor="middle" x="378.5" y="-154" font-family="sans" font-size="10.00">sample: MA.B.E_R1</text>
</g>
<!-- 13&#45;&gt;3 -->
<g id="edge13" class="edge">
<title>13&#45;&gt;3</title>
<path fill="none" stroke="grey" stroke-width="2" d="M378.5,-143.7C378.5,-135.98 378.5,-126.71 378.5,-118.11"/>
<polygon fill="grey" stroke="grey" stroke-width="2" points="382,-118.1 378.5,-108.1 375,-118.1 382,-118.1"/>
</g>
<!-- 14 -->
<g id="node15" class="node">
<title>14</title>
<path fill="none" stroke="#afd856" stroke-width="2" stroke-dasharray="5,2" d="M585.5,-180C585.5,-180 481.5,-180 481.5,-180 475.5,-180 469.5,-174 469.5,-168 469.5,-168 469.5,-156 469.5,-156 469.5,-150 475.5,-144 481.5,-144 481.5,-144 585.5,-144 585.5,-144 591.5,-144 597.5,-150 597.5,-156 597.5,-156 597.5,-168 597.5,-168 597.5,-174 591.5,-180 585.5,-180"/>
<text text-anchor="middle" x="533.5" y="-165" font-family="sans" font-size="10.00">convert_fastq_to_fasta</text>
<text text-anchor="middle" x="533.5" y="-154" font-family="sans" font-size="10.00">sample: MA.C.B_R1</text>
</g>
<!-- 14&#45;&gt;4 -->
<g id="edge14" class="edge">
<title>14&#45;&gt;4</title>
<path fill="none" stroke="grey" stroke-width="2" d="M533.5,-143.7C533.5,-135.98 533.5,-126.71 533.5,-118.11"/>
<polygon fill="grey" stroke="grey" stroke-width="2" points="537,-118.1 533.5,-108.1 530,-118.1 537,-118.1"/>
</g>
<!-- 15 -->
<g id="node16" class="node">
<title>15</title>
<path fill="none" stroke="#afd856" stroke-width="2" stroke-dasharray="5,2" d="M740.5,-180C740.5,-180 636.5,-180 636.5,-180 630.5,-180 624.5,-174 624.5,-168 624.5,-168 624.5,-156 624.5,-156 624.5,-150 630.5,-144 636.5,-144 636.5,-144 740.5,-144 740.5,-144 746.5,-144 752.5,-150 752.5,-156 752.5,-156 752.5,-168 752.5,-168 752.5,-174 746.5,-180 740.5,-180"/>
<text text-anchor="middle" x="688.5" y="-165" font-family="sans" font-size="10.00">convert_fastq_to_fasta</text>
<text text-anchor="middle" x="688.5" y="-154" font-family="sans" font-size="10.00">sample: MA.B.S2_R1</text>
</g>
<!-- 15&#45;&gt;5 -->
<g id="edge15" class="edge">
<title>15&#45;&gt;5</title>
<path fill="none" stroke="grey" stroke-width="2" d="M688.5,-143.7C688.5,-135.98 688.5,-126.71 688.5,-118.11"/>
<polygon fill="grey" stroke="grey" stroke-width="2" points="692,-118.1 688.5,-108.1 685,-118.1 692,-118.1"/>
</g>
<!-- 16 -->
<g id="node17" class="node">
<title>16</title>
<path fill="none" stroke="#afd856" stroke-width="2" stroke-dasharray="5,2" d="M895.5,-180C895.5,-180 791.5,-180 791.5,-180 785.5,-180 779.5,-174 779.5,-168 779.5,-168 779.5,-156 779.5,-156 779.5,-150 785.5,-144 791.5,-144 791.5,-144 895.5,-144 895.5,-144 901.5,-144 907.5,-150 907.5,-156 907.5,-156 907.5,-168 907.5,-168 907.5,-174 901.5,-180 895.5,-180"/>
<text text-anchor="middle" x="843.5" y="-165" font-family="sans" font-size="10.00">convert_fastq_to_fasta</text>
<text text-anchor="middle" x="843.5" y="-154" font-family="sans" font-size="10.00">sample: MA.C.A_R1</text>
</g>
<!-- 16&#45;&gt;6 -->
<g id="edge16" class="edge">
<title>16&#45;&gt;6</title>
<path fill="none" stroke="grey" stroke-width="2" d="M843.5,-143.7C843.5,-135.98 843.5,-126.71 843.5,-118.11"/>
<polygon fill="grey" stroke="grey" stroke-width="2" points="847,-118.1 843.5,-108.1 840,-118.1 847,-118.1"/>
</g>
<!-- 17 -->
<g id="node18" class="node">
<title>17</title>
<path fill="none" stroke="#afd856" stroke-width="2" stroke-dasharray="5,2" d="M1050.5,-180C1050.5,-180 946.5,-180 946.5,-180 940.5,-180 934.5,-174 934.5,-168 934.5,-168 934.5,-156 934.5,-156 934.5,-150 940.5,-144 946.5,-144 946.5,-144 1050.5,-144 1050.5,-144 1056.5,-144 1062.5,-150 1062.5,-156 1062.5,-156 1062.5,-168 1062.5,-168 1062.5,-174 1056.5,-180 1050.5,-180"/>
<text text-anchor="middle" x="998.5" y="-165" font-family="sans" font-size="10.00">convert_fastq_to_fasta</text>
<text text-anchor="middle" x="998.5" y="-154" font-family="sans" font-size="10.00">sample: 21AL.B_R1</text>
</g>
<!-- 17&#45;&gt;7 -->
<g id="edge17" class="edge">
<title>17&#45;&gt;7</title>
<path fill="none" stroke="grey" stroke-width="2" d="M998.5,-143.7C998.5,-135.98 998.5,-126.71 998.5,-118.11"/>
<polygon fill="grey" stroke="grey" stroke-width="2" points="1002,-118.1 998.5,-108.1 995,-118.1 1002,-118.1"/>
</g>
<!-- 18 -->
<g id="node19" class="node">
<title>18</title>
<path fill="none" stroke="#afd856" stroke-width="2" stroke-dasharray="5,2" d="M1205.5,-180C1205.5,-180 1101.5,-180 1101.5,-180 1095.5,-180 1089.5,-174 1089.5,-168 1089.5,-168 1089.5,-156 1089.5,-156 1089.5,-150 1095.5,-144 1101.5,-144 1101.5,-144 1205.5,-144 1205.5,-144 1211.5,-144 1217.5,-150 1217.5,-156 1217.5,-156 1217.5,-168 1217.5,-168 1217.5,-174 1211.5,-180 1205.5,-180"/>
<text text-anchor="middle" x="1153.5" y="-165" font-family="sans" font-size="10.00">convert_fastq_to_fasta</text>
<text text-anchor="middle" x="1153.5" y="-154" font-family="sans" font-size="10.00">sample: MA.B.S3_R1</text>
</g>
<!-- 18&#45;&gt;8 -->
<g id="edge18" class="edge">
<title>18&#45;&gt;8</title>
<path fill="none" stroke="grey" stroke-width="2" d="M1153.5,-143.7C1153.5,-135.98 1153.5,-126.71 1153.5,-118.11"/>
<polygon fill="grey" stroke="grey" stroke-width="2" points="1157,-118.1 1153.5,-108.1 1150,-118.1 1157,-118.1"/>
</g>
<!-- 19 -->
<g id="node20" class="node">
<title>19</title>
<path fill="none" stroke="#afd856" stroke-width="2" stroke-dasharray="5,2" d="M1360.5,-180C1360.5,-180 1256.5,-180 1256.5,-180 1250.5,-180 1244.5,-174 1244.5,-168 1244.5,-168 1244.5,-156 1244.5,-156 1244.5,-150 1250.5,-144 1256.5,-144 1256.5,-144 1360.5,-144 1360.5,-144 1366.5,-144 1372.5,-150 1372.5,-156 1372.5,-156 1372.5,-168 1372.5,-168 1372.5,-174 1366.5,-180 1360.5,-180"/>
<text text-anchor="middle" x="1308.5" y="-165" font-family="sans" font-size="10.00">convert_fastq_to_fasta</text>
<text text-anchor="middle" x="1308.5" y="-154" font-family="sans" font-size="10.00">sample: 21AL.C_R1</text>
</g>
<!-- 19&#45;&gt;9 -->
<g id="edge19" class="edge">
<title>19&#45;&gt;9</title>
<path fill="none" stroke="grey" stroke-width="2" d="M1308.5,-143.7C1308.5,-135.98 1308.5,-126.71 1308.5,-118.11"/>
<polygon fill="grey" stroke="grey" stroke-width="2" points="1312,-118.1 1308.5,-108.1 1305,-118.1 1312,-118.1"/>
</g>
<!-- 20 -->
<g id="node21" class="node">
<title>20</title>
<path fill="none" stroke="#afd856" stroke-width="2" stroke-dasharray="5,2" d="M1515.5,-180C1515.5,-180 1411.5,-180 1411.5,-180 1405.5,-180 1399.5,-174 1399.5,-168 1399.5,-168 1399.5,-156 1399.5,-156 1399.5,-150 1405.5,-144 1411.5,-144 1411.5,-144 1515.5,-144 1515.5,-144 1521.5,-144 1527.5,-150 1527.5,-156 1527.5,-156 1527.5,-168 1527.5,-168 1527.5,-174 1521.5,-180 1515.5,-180"/>
<text text-anchor="middle" x="1463.5" y="-165" font-family="sans" font-size="10.00">convert_fastq_to_fasta</text>
<text text-anchor="middle" x="1463.5" y="-154" font-family="sans" font-size="10.00">sample: 21AL.A_R1</text>
</g>
<!-- 20&#45;&gt;10 -->
<g id="edge20" class="edge">
<title>20&#45;&gt;10</title>
<path fill="none" stroke="grey" stroke-width="2" d="M1463.5,-143.7C1463.5,-135.98 1463.5,-126.71 1463.5,-118.11"/>
<polygon fill="grey" stroke="grey" stroke-width="2" points="1467,-118.1 1463.5,-108.1 1460,-118.1 1467,-118.1"/>
</g>
</g>
</svg>
