<?xml version="1.0" encoding="UTF-8" standalone="no"?>
<!DOCTYPE svg PUBLIC "-//W3C//DTD SVG 1.1//EN"
 "http://www.w3.org/Graphics/SVG/1.1/DTD/svg11.dtd">
<!-- Generated by graphviz version 2.43.0 (0)
 -->
<!-- Title: snakemake_dag Pages: 1 -->
<svg width="1540pt" height="260pt"
 viewBox="0.00 0.00 1540.00 260.00" xmlns="http://www.w3.org/2000/svg" xmlns:xlink="http://www.w3.org/1999/xlink">
<g id="graph0" class="graph" transform="scale(1 1) rotate(0) translate(4 256)">
<title>snakemake_dag</title>
<polygon fill="white" stroke="transparent" points="-4,4 -4,-256 1536,-256 1536,4 -4,4"/>
<!-- 0 -->
<g id="node1" class="node">
<title>0</title>
<path fill="none" stroke="#59d856" stroke-width="2" stroke-dasharray="5,2" d="M780.5,-36C780.5,-36 750.5,-36 750.5,-36 744.5,-36 738.5,-30 738.5,-24 738.5,-24 738.5,-12 738.5,-12 738.5,-6 744.5,0 750.5,0 750.5,0 780.5,0 780.5,0 786.5,0 792.5,-6 792.5,-12 792.5,-12 792.5,-24 792.5,-24 792.5,-30 786.5,-36 780.5,-36"/>
<text text-anchor="middle" x="765.5" y="-15.5" font-family="sans" font-size="10.00">all</text>
</g>
<!-- 1 -->
<g id="node2" class="node">
<title>1</title>
<path fill="none" stroke="#d85656" stroke-width="2" stroke-dasharray="5,2" d="M835.5,-108C835.5,-108 695.5,-108 695.5,-108 689.5,-108 683.5,-102 683.5,-96 683.5,-96 683.5,-84 683.5,-84 683.5,-78 689.5,-72 695.5,-72 695.5,-72 835.5,-72 835.5,-72 841.5,-72 847.5,-78 847.5,-84 847.5,-84 847.5,-96 847.5,-96 847.5,-102 841.5,-108 835.5,-108"/>
<text text-anchor="middle" x="765.5" y="-87.5" font-family="sans" font-size="10.00">combine_sequence_measures</text>
</g>
<!-- 1&#45;&gt;0 -->
<g id="edge1" class="edge">
<title>1&#45;&gt;0</title>
<path fill="none" stroke="grey" stroke-width="2" d="M765.5,-71.7C765.5,-63.98 765.5,-54.71 765.5,-46.11"/>
<polygon fill="grey" stroke="grey" stroke-width="2" points="769,-46.1 765.5,-36.1 762,-46.1 769,-46.1"/>
</g>
<!-- 2 -->
<g id="node3" class="node">
<title>2</title>
<path fill="none" stroke="#56d8d8" stroke-width="2" stroke-dasharray="5,2" d="M125,-180C125,-180 12,-180 12,-180 6,-180 0,-174 0,-168 0,-168 0,-156 0,-156 0,-150 6,-144 12,-144 12,-144 125,-144 125,-144 131,-144 137,-150 137,-156 137,-156 137,-168 137,-168 137,-174 131,-180 125,-180"/>
<text text-anchor="middle" x="68.5" y="-159.5" font-family="sans" font-size="10.00">get_sequence_measures</text>
</g>
<!-- 2&#45;&gt;1 -->
<g id="edge2" class="edge">
<title>2&#45;&gt;1</title>
<path fill="none" stroke="grey" stroke-width="2" d="M137.26,-145.35C140.04,-144.86 142.79,-144.41 145.5,-144 331.7,-115.61 551.85,-101.31 673.34,-95.07"/>
<polygon fill="grey" stroke="grey" stroke-width="2" points="673.54,-98.57 683.35,-94.57 673.19,-91.58 673.54,-98.57"/>
</g>
<!-- 3 -->
<g id="node4" class="node">
<title>3</title>
<path fill="none" stroke="#56d8d8" stroke-width="2" stroke-dasharray="5,2" d="M280,-180C280,-180 167,-180 167,-180 161,-180 155,-174 155,-168 155,-168 155,-156 155,-156 155,-150 161,-144 167,-144 167,-144 280,-144 280,-144 286,-144 292,-150 292,-156 292,-156 292,-168 292,-168 292,-174 286,-180 280,-180"/>
<text text-anchor="middle" x="223.5" y="-159.5" font-family="sans" font-size="10.00">get_sequence_measures</text>
</g>
<!-- 3&#45;&gt;1 -->
<g id="edge3" class="edge">
<title>3&#45;&gt;1</title>
<path fill="none" stroke="grey" stroke-width="2" d="M292.33,-145.6C295.42,-145.04 298.49,-144.5 301.5,-144 429.81,-122.75 579.49,-107.32 673.39,-98.76"/>
<polygon fill="grey" stroke="grey" stroke-width="2" points="673.79,-102.24 683.43,-97.85 673.16,-95.27 673.79,-102.24"/>
</g>
<!-- 4 -->
<g id="node5" class="node">
<title>4</title>
<path fill="none" stroke="#56d8d8" stroke-width="2" stroke-dasharray="5,2" d="M435,-180C435,-180 322,-180 322,-180 316,-180 310,-174 310,-168 310,-168 310,-156 310,-156 310,-150 316,-144 322,-144 322,-144 435,-144 435,-144 441,-144 447,-150 447,-156 447,-156 447,-168 447,-168 447,-174 441,-180 435,-180"/>
<text text-anchor="middle" x="378.5" y="-159.5" font-family="sans" font-size="10.00">get_sequence_measures</text>
</g>
<!-- 4&#45;&gt;1 -->
<g id="edge4" class="edge">
<title>4&#45;&gt;1</title>
<path fill="none" stroke="grey" stroke-width="2" d="M447.37,-145.82C450.45,-145.19 453.51,-144.58 456.5,-144 529.12,-129.86 611.75,-115.8 673.27,-105.71"/>
<polygon fill="grey" stroke="grey" stroke-width="2" points="674.04,-109.13 683.34,-104.06 672.91,-102.22 674.04,-109.13"/>
</g>
<!-- 5 -->
<g id="node6" class="node">
<title>5</title>
<path fill="none" stroke="#56d8d8" stroke-width="2" stroke-dasharray="5,2" d="M590,-180C590,-180 477,-180 477,-180 471,-180 465,-174 465,-168 465,-168 465,-156 465,-156 465,-150 471,-144 477,-144 477,-144 590,-144 590,-144 596,-144 602,-150 602,-156 602,-156 602,-168 602,-168 602,-174 596,-180 590,-180"/>
<text text-anchor="middle" x="533.5" y="-159.5" font-family="sans" font-size="10.00">get_sequence_measures</text>
</g>
<!-- 5&#45;&gt;1 -->
<g id="edge5" class="edge">
<title>5&#45;&gt;1</title>
<path fill="none" stroke="grey" stroke-width="2" d="M589.96,-143.97C622.8,-134.06 664.37,-121.51 698.81,-111.12"/>
<polygon fill="grey" stroke="grey" stroke-width="2" points="700.23,-114.35 708.79,-108.11 698.21,-107.65 700.23,-114.35"/>
</g>
<!-- 6 -->
<g id="node7" class="node">
<title>6</title>
<path fill="none" stroke="#56d8d8" stroke-width="2" stroke-dasharray="5,2" d="M745,-180C745,-180 632,-180 632,-180 626,-180 620,-174 620,-168 620,-168 620,-156 620,-156 620,-150 626,-144 632,-144 632,-144 745,-144 745,-144 751,-144 757,-150 757,-156 757,-156 757,-168 757,-168 757,-174 751,-180 745,-180"/>
<text text-anchor="middle" x="688.5" y="-159.5" font-family="sans" font-size="10.00">get_sequence_measures</text>
</g>
<!-- 6&#45;&gt;1 -->
<g id="edge6" class="edge">
<title>6&#45;&gt;1</title>
<path fill="none" stroke="grey" stroke-width="2" d="M707.53,-143.7C717.04,-135.05 728.71,-124.45 739.07,-115.03"/>
<polygon fill="grey" stroke="grey" stroke-width="2" points="741.64,-117.42 746.69,-108.1 736.93,-112.24 741.64,-117.42"/>
</g>
<!-- 7 -->
<g id="node8" class="node">
<title>7</title>
<path fill="none" stroke="#56d8d8" stroke-width="2" stroke-dasharray="5,2" d="M900,-180C900,-180 787,-180 787,-180 781,-180 775,-174 775,-168 775,-168 775,-156 775,-156 775,-150 781,-144 787,-144 787,-144 900,-144 900,-144 906,-144 912,-150 912,-156 912,-156 912,-168 912,-168 912,-174 906,-180 900,-180"/>
<text text-anchor="middle" x="843.5" y="-159.5" font-family="sans" font-size="10.00">get_sequence_measures</text>
</g>
<!-- 7&#45;&gt;1 -->
<g id="edge7" class="edge">
<title>7&#45;&gt;1</title>
<path fill="none" stroke="grey" stroke-width="2" d="M824.22,-143.7C814.58,-135.05 802.77,-124.45 792.27,-115.03"/>
<polygon fill="grey" stroke="grey" stroke-width="2" points="794.34,-112.18 784.56,-108.1 789.66,-117.39 794.34,-112.18"/>
</g>
<!-- 8 -->
<g id="node9" class="node">
<title>8</title>
<path fill="none" stroke="#56d8d8" stroke-width="2" stroke-dasharray="5,2" d="M1055,-180C1055,-180 942,-180 942,-180 936,-180 930,-174 930,-168 930,-168 930,-156 930,-156 930,-150 936,-144 942,-144 942,-144 1055,-144 1055,-144 1061,-144 1067,-150 1067,-156 1067,-156 1067,-168 1067,-168 1067,-174 1061,-180 1055,-180"/>
<text text-anchor="middle" x="998.5" y="-159.5" font-family="sans" font-size="10.00">get_sequence_measures</text>
</g>
<!-- 8&#45;&gt;1 -->
<g id="edge8" class="edge">
<title>8&#45;&gt;1</title>
<path fill="none" stroke="grey" stroke-width="2" d="M941.8,-143.97C908.82,-134.06 867.07,-121.51 832.47,-111.12"/>
<polygon fill="grey" stroke="grey" stroke-width="2" points="833.04,-107.64 822.45,-108.11 831.02,-114.34 833.04,-107.64"/>
</g>
<!-- 9 -->
<g id="node10" class="node">
<title>9</title>
<path fill="none" stroke="#56d8d8" stroke-width="2" stroke-dasharray="5,2" d="M1210,-180C1210,-180 1097,-180 1097,-180 1091,-180 1085,-174 1085,-168 1085,-168 1085,-156 1085,-156 1085,-150 1091,-144 1097,-144 1097,-144 1210,-144 1210,-144 1216,-144 1222,-150 1222,-156 1222,-156 1222,-168 1222,-168 1222,-174 1216,-180 1210,-180"/>
<text text-anchor="middle" x="1153.5" y="-159.5" font-family="sans" font-size="10.00">get_sequence_measures</text>
</g>
<!-- 9&#45;&gt;1 -->
<g id="edge9" class="edge">
<title>9&#45;&gt;1</title>
<path fill="none" stroke="grey" stroke-width="2" d="M1084.69,-145.63C1081.92,-145.07 1079.19,-144.53 1076.5,-144 1003.18,-129.67 919.69,-115.56 857.7,-105.51"/>
<polygon fill="grey" stroke="grey" stroke-width="2" points="857.98,-102.01 847.55,-103.87 856.86,-108.92 857.98,-102.01"/>
</g>
<!-- 10 -->
<g id="node11" class="node">
<title>10</title>
<path fill="none" stroke="#56d8d8" stroke-width="2" stroke-dasharray="5,2" d="M1365,-180C1365,-180 1252,-180 1252,-180 1246,-180 1240,-174 1240,-168 1240,-168 1240,-156 1240,-156 1240,-150 1246,-144 1252,-144 1252,-144 1365,-144 1365,-144 1371,-144 1377,-150 1377,-156 1377,-156 1377,-168 1377,-168 1377,-174 1371,-180 1365,-180"/>
<text text-anchor="middle" x="1308.5" y="-159.5" font-family="sans" font-size="10.00">get_sequence_measures</text>
</g>
<!-- 10&#45;&gt;1 -->
<g id="edge10" class="edge">
<title>10&#45;&gt;1</title>
<path fill="none" stroke="grey" stroke-width="2" d="M1239.72,-145.44C1236.95,-144.93 1234.2,-144.45 1231.5,-144 1102.48,-122.48 951.88,-107.1 857.59,-98.62"/>
<polygon fill="grey" stroke="grey" stroke-width="2" points="857.78,-95.13 847.51,-97.73 857.16,-102.1 857.78,-95.13"/>
</g>
<!-- 11 -->
<g id="node12" class="node">
<title>11</title>
<path fill="none" stroke="#56d8d8" stroke-width="2" stroke-dasharray="5,2" d="M1520,-180C1520,-180 1407,-180 1407,-180 1401,-180 1395,-174 1395,-168 1395,-168 1395,-156 1395,-156 1395,-150 1401,-144 1407,-144 1407,-144 1520,-144 1520,-144 1526,-144 1532,-150 1532,-156 1532,-156 1532,-168 1532,-168 1532,-174 1526,-180 1520,-180"/>
<text text-anchor="middle" x="1463.5" y="-159.5" font-family="sans" font-size="10.00">get_sequence_measures</text>
</g>
<!-- 11&#45;&gt;1 -->
<g id="edge11" class="edge">
<title>11&#45;&gt;1</title>
<path fill="none" stroke="grey" stroke-width="2" d="M1394.74,-145.35C1391.96,-144.86 1389.21,-144.41 1386.5,-144 1200,-115.58 979.49,-101.29 857.81,-95.06"/>
<polygon fill="grey" stroke="grey" stroke-width="2" points="857.94,-91.57 847.78,-94.56 857.59,-98.56 857.94,-91.57"/>
</g>
<!-- 12 -->
<g id="node13" class="node">
<title>12</title>
<path fill="none" stroke="#d6d856" stroke-width="2" stroke-dasharray="5,2" d="M120.5,-252C120.5,-252 16.5,-252 16.5,-252 10.5,-252 4.5,-246 4.5,-240 4.5,-240 4.5,-228 4.5,-228 4.5,-222 10.5,-216 16.5,-216 16.5,-216 120.5,-216 120.5,-216 126.5,-216 132.5,-222 132.5,-228 132.5,-228 132.5,-240 132.5,-240 132.5,-246 126.5,-252 120.5,-252"/>
<text text-anchor="middle" x="68.5" y="-237" font-family="sans" font-size="10.00">convert_fastq_to_fasta</text>
<text text-anchor="middle" x="68.5" y="-226" font-family="sans" font-size="10.00">sample: MA.B.S1_R1</text>
</g>
<!-- 12&#45;&gt;2 -->
<g id="edge12" class="edge">
<title>12&#45;&gt;2</title>
<path fill="none" stroke="grey" stroke-width="2" d="M68.5,-215.7C68.5,-207.98 68.5,-198.71 68.5,-190.11"/>
<polygon fill="grey" stroke="grey" stroke-width="2" points="72,-190.1 68.5,-180.1 65,-190.1 72,-190.1"/>
</g>
<!-- 13 -->
<g id="node14" class="node">
<title>13</title>
<path fill="none" stroke="#d6d856" stroke-width="2" stroke-dasharray="5,2" d="M275.5,-252C275.5,-252 171.5,-252 171.5,-252 165.5,-252 159.5,-246 159.5,-240 159.5,-240 159.5,-228 159.5,-228 159.5,-222 165.5,-216 171.5,-216 171.5,-216 275.5,-216 275.5,-216 281.5,-216 287.5,-222 287.5,-228 287.5,-228 287.5,-240 287.5,-240 287.5,-246 281.5,-252 275.5,-252"/>
<text text-anchor="middle" x="223.5" y="-237" font-family="sans" font-size="10.00">convert_fastq_to_fasta</text>
<text text-anchor="middle" x="223.5" y="-226" font-family="sans" font-size="10.00">sample: MA.B.F_R1</text>
</g>
<!-- 13&#45;&gt;3 -->
<g id="edge13" class="edge">
<title>13&#45;&gt;3</title>
<path fill="none" stroke="grey" stroke-width="2" d="M223.5,-215.7C223.5,-207.98 223.5,-198.71 223.5,-190.11"/>
<polygon fill="grey" stroke="grey" stroke-width="2" points="227,-190.1 223.5,-180.1 220,-190.1 227,-190.1"/>
</g>
<!-- 14 -->
<g id="node15" class="node">
<title>14</title>
<path fill="none" stroke="#d6d856" stroke-width="2" stroke-dasharray="5,2" d="M430.5,-252C430.5,-252 326.5,-252 326.5,-252 320.5,-252 314.5,-246 314.5,-240 314.5,-240 314.5,-228 314.5,-228 314.5,-222 320.5,-216 326.5,-216 326.5,-216 430.5,-216 430.5,-216 436.5,-216 442.5,-222 442.5,-228 442.5,-228 442.5,-240 442.5,-240 442.5,-246 436.5,-252 430.5,-252"/>
<text text-anchor="middle" x="378.5" y="-237" font-family="sans" font-size="10.00">convert_fastq_to_fasta</text>
<text text-anchor="middle" x="378.5" y="-226" font-family="sans" font-size="10.00">sample: MA.B.E_R1</text>
</g>
<!-- 14&#45;&gt;4 -->
<g id="edge14" class="edge">
<title>14&#45;&gt;4</title>
<path fill="none" stroke="grey" stroke-width="2" d="M378.5,-215.7C378.5,-207.98 378.5,-198.71 378.5,-190.11"/>
<polygon fill="grey" stroke="grey" stroke-width="2" points="382,-190.1 378.5,-180.1 375,-190.1 382,-190.1"/>
</g>
<!-- 15 -->
<g id="node16" class="node">
<title>15</title>
<path fill="none" stroke="#d6d856" stroke-width="2" stroke-dasharray="5,2" d="M585.5,-252C585.5,-252 481.5,-252 481.5,-252 475.5,-252 469.5,-246 469.5,-240 469.5,-240 469.5,-228 469.5,-228 469.5,-222 475.5,-216 481.5,-216 481.5,-216 585.5,-216 585.5,-216 591.5,-216 597.5,-222 597.5,-228 597.5,-228 597.5,-240 597.5,-240 597.5,-246 591.5,-252 585.5,-252"/>
<text text-anchor="middle" x="533.5" y="-237" font-family="sans" font-size="10.00">convert_fastq_to_fasta</text>
<text text-anchor="middle" x="533.5" y="-226" font-family="sans" font-size="10.00">sample: MA.C.B_R1</text>
</g>
<!-- 15&#45;&gt;5 -->
<g id="edge15" class="edge">
<title>15&#45;&gt;5</title>
<path fill="none" stroke="grey" stroke-width="2" d="M533.5,-215.7C533.5,-207.98 533.5,-198.71 533.5,-190.11"/>
<polygon fill="grey" stroke="grey" stroke-width="2" points="537,-190.1 533.5,-180.1 530,-190.1 537,-190.1"/>
</g>
<!-- 16 -->
<g id="node17" class="node">
<title>16</title>
<path fill="none" stroke="#d6d856" stroke-width="2" stroke-dasharray="5,2" d="M740.5,-252C740.5,-252 636.5,-252 636.5,-252 630.5,-252 624.5,-246 624.5,-240 624.5,-240 624.5,-228 624.5,-228 624.5,-222 630.5,-216 636.5,-216 636.5,-216 740.5,-216 740.5,-216 746.5,-216 752.5,-222 752.5,-228 752.5,-228 752.5,-240 752.5,-240 752.5,-246 746.5,-252 740.5,-252"/>
<text text-anchor="middle" x="688.5" y="-237" font-family="sans" font-size="10.00">convert_fastq_to_fasta</text>
<text text-anchor="middle" x="688.5" y="-226" font-family="sans" font-size="10.00">sample: MA.B.S2_R1</text>
</g>
<!-- 16&#45;&gt;6 -->
<g id="edge16" class="edge">
<title>16&#45;&gt;6</title>
<path fill="none" stroke="grey" stroke-width="2" d="M688.5,-215.7C688.5,-207.98 688.5,-198.71 688.5,-190.11"/>
<polygon fill="grey" stroke="grey" stroke-width="2" points="692,-190.1 688.5,-180.1 685,-190.1 692,-190.1"/>
</g>
<!-- 17 -->
<g id="node18" class="node">
<title>17</title>
<path fill="none" stroke="#d6d856" stroke-width="2" stroke-dasharray="5,2" d="M895.5,-252C895.5,-252 791.5,-252 791.5,-252 785.5,-252 779.5,-246 779.5,-240 779.5,-240 779.5,-228 779.5,-228 779.5,-222 785.5,-216 791.5,-216 791.5,-216 895.5,-216 895.5,-216 901.5,-216 907.5,-222 907.5,-228 907.5,-228 907.5,-240 907.5,-240 907.5,-246 901.5,-252 895.5,-252"/>
<text text-anchor="middle" x="843.5" y="-237" font-family="sans" font-size="10.00">convert_fastq_to_fasta</text>
<text text-anchor="middle" x="843.5" y="-226" font-family="sans" font-size="10.00">sample: MA.C.A_R1</text>
</g>
<!-- 17&#45;&gt;7 -->
<g id="edge17" class="edge">
<title>17&#45;&gt;7</title>
<path fill="none" stroke="grey" stroke-width="2" d="M843.5,-215.7C843.5,-207.98 843.5,-198.71 843.5,-190.11"/>
<polygon fill="grey" stroke="grey" stroke-width="2" points="847,-190.1 843.5,-180.1 840,-190.1 847,-190.1"/>
</g>
<!-- 18 -->
<g id="node19" class="node">
<title>18</title>
<path fill="none" stroke="#d6d856" stroke-width="2" stroke-dasharray="5,2" d="M1050.5,-252C1050.5,-252 946.5,-252 946.5,-252 940.5,-252 934.5,-246 934.5,-240 934.5,-240 934.5,-228 934.5,-228 934.5,-222 940.5,-216 946.5,-216 946.5,-216 1050.5,-216 1050.5,-216 1056.5,-216 1062.5,-222 1062.5,-228 1062.5,-228 1062.5,-240 1062.5,-240 1062.5,-246 1056.5,-252 1050.5,-252"/>
<text text-anchor="middle" x="998.5" y="-237" font-family="sans" font-size="10.00">convert_fastq_to_fasta</text>
<text text-anchor="middle" x="998.5" y="-226" font-family="sans" font-size="10.00">sample: 21AL.B_R1</text>
</g>
<!-- 18&#45;&gt;8 -->
<g id="edge18" class="edge">
<title>18&#45;&gt;8</title>
<path fill="none" stroke="grey" stroke-width="2" d="M998.5,-215.7C998.5,-207.98 998.5,-198.71 998.5,-190.11"/>
<polygon fill="grey" stroke="grey" stroke-width="2" points="1002,-190.1 998.5,-180.1 995,-190.1 1002,-190.1"/>
</g>
<!-- 19 -->
<g id="node20" class="node">
<title>19</title>
<path fill="none" stroke="#d6d856" stroke-width="2" stroke-dasharray="5,2" d="M1205.5,-252C1205.5,-252 1101.5,-252 1101.5,-252 1095.5,-252 1089.5,-246 1089.5,-240 1089.5,-240 1089.5,-228 1089.5,-228 1089.5,-222 1095.5,-216 1101.5,-216 1101.5,-216 1205.5,-216 1205.5,-216 1211.5,-216 1217.5,-222 1217.5,-228 1217.5,-228 1217.5,-240 1217.5,-240 1217.5,-246 1211.5,-252 1205.5,-252"/>
<text text-anchor="middle" x="1153.5" y="-237" font-family="sans" font-size="10.00">convert_fastq_to_fasta</text>
<text text-anchor="middle" x="1153.5" y="-226" font-family="sans" font-size="10.00">sample: MA.B.S3_R1</text>
</g>
<!-- 19&#45;&gt;9 -->
<g id="edge19" class="edge">
<title>19&#45;&gt;9</title>
<path fill="none" stroke="grey" stroke-width="2" d="M1153.5,-215.7C1153.5,-207.98 1153.5,-198.71 1153.5,-190.11"/>
<polygon fill="grey" stroke="grey" stroke-width="2" points="1157,-190.1 1153.5,-180.1 1150,-190.1 1157,-190.1"/>
</g>
<!-- 20 -->
<g id="node21" class="node">
<title>20</title>
<path fill="none" stroke="#d6d856" stroke-width="2" stroke-dasharray="5,2" d="M1360.5,-252C1360.5,-252 1256.5,-252 1256.5,-252 1250.5,-252 1244.5,-246 1244.5,-240 1244.5,-240 1244.5,-228 1244.5,-228 1244.5,-222 1250.5,-216 1256.5,-216 1256.5,-216 1360.5,-216 1360.5,-216 1366.5,-216 1372.5,-222 1372.5,-228 1372.5,-228 1372.5,-240 1372.5,-240 1372.5,-246 1366.5,-252 1360.5,-252"/>
<text text-anchor="middle" x="1308.5" y="-237" font-family="sans" font-size="10.00">convert_fastq_to_fasta</text>
<text text-anchor="middle" x="1308.5" y="-226" font-family="sans" font-size="10.00">sample: 21AL.C_R1</text>
</g>
<!-- 20&#45;&gt;10 -->
<g id="edge20" class="edge">
<title>20&#45;&gt;10</title>
<path fill="none" stroke="grey" stroke-width="2" d="M1308.5,-215.7C1308.5,-207.98 1308.5,-198.71 1308.5,-190.11"/>
<polygon fill="grey" stroke="grey" stroke-width="2" points="1312,-190.1 1308.5,-180.1 1305,-190.1 1312,-190.1"/>
</g>
<!-- 21 -->
<g id="node22" class="node">
<title>21</title>
<path fill="none" stroke="#d6d856" stroke-width="2" stroke-dasharray="5,2" d="M1515.5,-252C1515.5,-252 1411.5,-252 1411.5,-252 1405.5,-252 1399.5,-246 1399.5,-240 1399.5,-240 1399.5,-228 1399.5,-228 1399.5,-222 1405.5,-216 1411.5,-216 1411.5,-216 1515.5,-216 1515.5,-216 1521.5,-216 1527.5,-222 1527.5,-228 1527.5,-228 1527.5,-240 1527.5,-240 1527.5,-246 1521.5,-252 1515.5,-252"/>
<text text-anchor="middle" x="1463.5" y="-237" font-family="sans" font-size="10.00">convert_fastq_to_fasta</text>
<text text-anchor="middle" x="1463.5" y="-226" font-family="sans" font-size="10.00">sample: 21AL.A_R1</text>
</g>
<!-- 21&#45;&gt;11 -->
<g id="edge21" class="edge">
<title>21&#45;&gt;11</title>
<path fill="none" stroke="grey" stroke-width="2" d="M1463.5,-215.7C1463.5,-207.98 1463.5,-198.71 1463.5,-190.11"/>
<polygon fill="grey" stroke="grey" stroke-width="2" points="1467,-190.1 1463.5,-180.1 1460,-190.1 1467,-190.1"/>
</g>
</g>
</svg>
