<?xml version="1.0" encoding="UTF-8" standalone="no"?>
<!DOCTYPE svg PUBLIC "-//W3C//DTD SVG 1.1//EN"
 "http://www.w3.org/Graphics/SVG/1.1/DTD/svg11.dtd">
<!-- Generated by graphviz version 2.43.0 (0)
 -->
<!-- Title: snakemake_dag Pages: 1 -->
<svg width="455pt" height="260pt"
 viewBox="0.00 0.00 455.00 260.00" xmlns="http://www.w3.org/2000/svg" xmlns:xlink="http://www.w3.org/1999/xlink">
<g id="graph0" class="graph" transform="scale(1 1) rotate(0) translate(4 256)">
<title>snakemake_dag</title>
<polygon fill="white" stroke="transparent" points="-4,4 -4,-256 451,-256 451,4 -4,4"/>
<!-- 0 -->
<g id="node1" class="node">
<title>0</title>
<path fill="none" stroke="#d6d856" stroke-width="2" stroke-dasharray="5,2" d="M238.5,-36C238.5,-36 208.5,-36 208.5,-36 202.5,-36 196.5,-30 196.5,-24 196.5,-24 196.5,-12 196.5,-12 196.5,-6 202.5,0 208.5,0 208.5,0 238.5,0 238.5,0 244.5,0 250.5,-6 250.5,-12 250.5,-12 250.5,-24 250.5,-24 250.5,-30 244.5,-36 238.5,-36"/>
<text text-anchor="middle" x="223.5" y="-15.5" font-family="sans" font-size="10.00">all</text>
</g>
<!-- 1 -->
<g id="node2" class="node">
<title>1</title>
<path fill="none" stroke="#d85656" stroke-width="2" stroke-dasharray="5,2" d="M293.5,-108C293.5,-108 153.5,-108 153.5,-108 147.5,-108 141.5,-102 141.5,-96 141.5,-96 141.5,-84 141.5,-84 141.5,-78 147.5,-72 153.5,-72 153.5,-72 293.5,-72 293.5,-72 299.5,-72 305.5,-78 305.5,-84 305.5,-84 305.5,-96 305.5,-96 305.5,-102 299.5,-108 293.5,-108"/>
<text text-anchor="middle" x="223.5" y="-87.5" font-family="sans" font-size="10.00">combine_sequence_measures</text>
</g>
<!-- 1&#45;&gt;0 -->
<g id="edge1" class="edge">
<title>1&#45;&gt;0</title>
<path fill="none" stroke="grey" stroke-width="2" d="M223.5,-71.7C223.5,-63.98 223.5,-54.71 223.5,-46.11"/>
<polygon fill="grey" stroke="grey" stroke-width="2" points="227,-46.1 223.5,-36.1 220,-46.1 227,-46.1"/>
</g>
<!-- 2 -->
<g id="node3" class="node">
<title>2</title>
<path fill="none" stroke="#56d8d8" stroke-width="2" stroke-dasharray="5,2" d="M125,-180C125,-180 12,-180 12,-180 6,-180 0,-174 0,-168 0,-168 0,-156 0,-156 0,-150 6,-144 12,-144 12,-144 125,-144 125,-144 131,-144 137,-150 137,-156 137,-156 137,-168 137,-168 137,-174 131,-180 125,-180"/>
<text text-anchor="middle" x="68.5" y="-159.5" font-family="sans" font-size="10.00">get_sequence_measures</text>
</g>
<!-- 2&#45;&gt;1 -->
<g id="edge2" class="edge">
<title>2&#45;&gt;1</title>
<path fill="none" stroke="grey" stroke-width="2" d="M106.42,-143.88C127.51,-134.35 153.96,-122.41 176.37,-112.28"/>
<polygon fill="grey" stroke="grey" stroke-width="2" points="178.03,-115.37 185.71,-108.07 175.15,-108.99 178.03,-115.37"/>
</g>
<!-- 3 -->
<g id="node4" class="node">
<title>3</title>
<path fill="none" stroke="#56d8d8" stroke-width="2" stroke-dasharray="5,2" d="M280,-180C280,-180 167,-180 167,-180 161,-180 155,-174 155,-168 155,-168 155,-156 155,-156 155,-150 161,-144 167,-144 167,-144 280,-144 280,-144 286,-144 292,-150 292,-156 292,-156 292,-168 292,-168 292,-174 286,-180 280,-180"/>
<text text-anchor="middle" x="223.5" y="-159.5" font-family="sans" font-size="10.00">get_sequence_measures</text>
</g>
<!-- 3&#45;&gt;1 -->
<g id="edge3" class="edge">
<title>3&#45;&gt;1</title>
<path fill="none" stroke="grey" stroke-width="2" d="M223.5,-143.7C223.5,-135.98 223.5,-126.71 223.5,-118.11"/>
<polygon fill="grey" stroke="grey" stroke-width="2" points="227,-118.1 223.5,-108.1 220,-118.1 227,-118.1"/>
</g>
<!-- 4 -->
<g id="node5" class="node">
<title>4</title>
<path fill="none" stroke="#56d8d8" stroke-width="2" stroke-dasharray="5,2" d="M435,-180C435,-180 322,-180 322,-180 316,-180 310,-174 310,-168 310,-168 310,-156 310,-156 310,-150 316,-144 322,-144 322,-144 435,-144 435,-144 441,-144 447,-150 447,-156 447,-156 447,-168 447,-168 447,-174 441,-180 435,-180"/>
<text text-anchor="middle" x="378.5" y="-159.5" font-family="sans" font-size="10.00">get_sequence_measures</text>
</g>
<!-- 4&#45;&gt;1 -->
<g id="edge4" class="edge">
<title>4&#45;&gt;1</title>
<path fill="none" stroke="grey" stroke-width="2" d="M340.58,-143.88C319.49,-134.35 293.04,-122.41 270.63,-112.28"/>
<polygon fill="grey" stroke="grey" stroke-width="2" points="271.85,-108.99 261.29,-108.07 268.97,-115.37 271.85,-108.99"/>
</g>
<!-- 5 -->
<g id="node6" class="node">
<title>5</title>
<path fill="none" stroke="#59d856" stroke-width="2" stroke-dasharray="5,2" d="M120.5,-252C120.5,-252 16.5,-252 16.5,-252 10.5,-252 4.5,-246 4.5,-240 4.5,-240 4.5,-228 4.5,-228 4.5,-222 10.5,-216 16.5,-216 16.5,-216 120.5,-216 120.5,-216 126.5,-216 132.5,-222 132.5,-228 132.5,-228 132.5,-240 132.5,-240 132.5,-246 126.5,-252 120.5,-252"/>
<text text-anchor="middle" x="68.5" y="-237" font-family="sans" font-size="10.00">convert_fastq_to_fasta</text>
<text text-anchor="middle" x="68.5" y="-226" font-family="sans" font-size="10.00">sample: 21AL.A_R1</text>
</g>
<!-- 5&#45;&gt;2 -->
<g id="edge5" class="edge">
<title>5&#45;&gt;2</title>
<path fill="none" stroke="grey" stroke-width="2" d="M68.5,-215.7C68.5,-207.98 68.5,-198.71 68.5,-190.11"/>
<polygon fill="grey" stroke="grey" stroke-width="2" points="72,-190.1 68.5,-180.1 65,-190.1 72,-190.1"/>
</g>
<!-- 6 -->
<g id="node7" class="node">
<title>6</title>
<path fill="none" stroke="#59d856" stroke-width="2" stroke-dasharray="5,2" d="M275.5,-252C275.5,-252 171.5,-252 171.5,-252 165.5,-252 159.5,-246 159.5,-240 159.5,-240 159.5,-228 159.5,-228 159.5,-222 165.5,-216 171.5,-216 171.5,-216 275.5,-216 275.5,-216 281.5,-216 287.5,-222 287.5,-228 287.5,-228 287.5,-240 287.5,-240 287.5,-246 281.5,-252 275.5,-252"/>
<text text-anchor="middle" x="223.5" y="-237" font-family="sans" font-size="10.00">convert_fastq_to_fasta</text>
<text text-anchor="middle" x="223.5" y="-226" font-family="sans" font-size="10.00">sample: MA.B.E_R1</text>
</g>
<!-- 6&#45;&gt;3 -->
<g id="edge6" class="edge">
<title>6&#45;&gt;3</title>
<path fill="none" stroke="grey" stroke-width="2" d="M223.5,-215.7C223.5,-207.98 223.5,-198.71 223.5,-190.11"/>
<polygon fill="grey" stroke="grey" stroke-width="2" points="227,-190.1 223.5,-180.1 220,-190.1 227,-190.1"/>
</g>
<!-- 7 -->
<g id="node8" class="node">
<title>7</title>
<path fill="none" stroke="#59d856" stroke-width="2" stroke-dasharray="5,2" d="M430.5,-252C430.5,-252 326.5,-252 326.5,-252 320.5,-252 314.5,-246 314.5,-240 314.5,-240 314.5,-228 314.5,-228 314.5,-222 320.5,-216 326.5,-216 326.5,-216 430.5,-216 430.5,-216 436.5,-216 442.5,-222 442.5,-228 442.5,-228 442.5,-240 442.5,-240 442.5,-246 436.5,-252 430.5,-252"/>
<text text-anchor="middle" x="378.5" y="-237" font-family="sans" font-size="10.00">convert_fastq_to_fasta</text>
<text text-anchor="middle" x="378.5" y="-226" font-family="sans" font-size="10.00">sample: MA.C.A_R1</text>
</g>
<!-- 7&#45;&gt;4 -->
<g id="edge7" class="edge">
<title>7&#45;&gt;4</title>
<path fill="none" stroke="grey" stroke-width="2" d="M378.5,-215.7C378.5,-207.98 378.5,-198.71 378.5,-190.11"/>
<polygon fill="grey" stroke="grey" stroke-width="2" points="382,-190.1 378.5,-180.1 375,-190.1 382,-190.1"/>
</g>
</g>
</svg>
