<?xml version="1.0" encoding="UTF-8" standalone="no"?>
<!DOCTYPE svg PUBLIC "-//W3C//DTD SVG 1.1//EN"
 "http://www.w3.org/Graphics/SVG/1.1/DTD/svg11.dtd">
<!-- Generated by graphviz version 2.43.0 (0)
 -->
<!-- Title: snakemake_dag Pages: 1 -->
<svg width="455pt" height="188pt"
 viewBox="0.00 0.00 455.00 188.00" xmlns="http://www.w3.org/2000/svg" xmlns:xlink="http://www.w3.org/1999/xlink">
<g id="graph0" class="graph" transform="scale(1 1) rotate(0) translate(4 184)">
<title>snakemake_dag</title>
<polygon fill="white" stroke="transparent" points="-4,4 -4,-184 451,-184 451,4 -4,4"/>
<!-- 0 -->
<g id="node1" class="node">
<title>0</title>
<path fill="none" stroke="#afd856" stroke-width="2" stroke-dasharray="5,2" d="M238.5,-36C238.5,-36 208.5,-36 208.5,-36 202.5,-36 196.5,-30 196.5,-24 196.5,-24 196.5,-12 196.5,-12 196.5,-6 202.5,0 208.5,0 208.5,0 238.5,0 238.5,0 244.5,0 250.5,-6 250.5,-12 250.5,-12 250.5,-24 250.5,-24 250.5,-30 244.5,-36 238.5,-36"/>
<text text-anchor="middle" x="223.5" y="-15.5" font-family="sans" font-size="10.00">all</text>
</g>
<!-- 1 -->
<g id="node2" class="node">
<title>1</title>
<path fill="none" stroke="#d85656" stroke-width="2" stroke-dasharray="5,2" d="M125,-108C125,-108 12,-108 12,-108 6,-108 0,-102 0,-96 0,-96 0,-84 0,-84 0,-78 6,-72 12,-72 12,-72 125,-72 125,-72 131,-72 137,-78 137,-84 137,-84 137,-96 137,-96 137,-102 131,-108 125,-108"/>
<text text-anchor="middle" x="68.5" y="-87.5" font-family="sans" font-size="10.00">get_sequence_measures</text>
</g>
<!-- 1&#45;&gt;0 -->
<g id="edge1" class="edge">
<title>1&#45;&gt;0</title>
<path fill="none" stroke="grey" stroke-width="2" d="M106.42,-71.88C130.94,-60.8 162.7,-46.46 186.95,-35.5"/>
<polygon fill="grey" stroke="grey" stroke-width="2" points="188.51,-38.64 196.18,-31.34 185.63,-32.26 188.51,-38.64"/>
</g>
<!-- 2 -->
<g id="node3" class="node">
<title>2</title>
<path fill="none" stroke="#d85656" stroke-width="2" stroke-dasharray="5,2" d="M280,-108C280,-108 167,-108 167,-108 161,-108 155,-102 155,-96 155,-96 155,-84 155,-84 155,-78 161,-72 167,-72 167,-72 280,-72 280,-72 286,-72 292,-78 292,-84 292,-84 292,-96 292,-96 292,-102 286,-108 280,-108"/>
<text text-anchor="middle" x="223.5" y="-87.5" font-family="sans" font-size="10.00">get_sequence_measures</text>
</g>
<!-- 2&#45;&gt;0 -->
<g id="edge2" class="edge">
<title>2&#45;&gt;0</title>
<path fill="none" stroke="grey" stroke-width="2" d="M223.5,-71.7C223.5,-63.98 223.5,-54.71 223.5,-46.11"/>
<polygon fill="grey" stroke="grey" stroke-width="2" points="227,-46.1 223.5,-36.1 220,-46.1 227,-46.1"/>
</g>
<!-- 3 -->
<g id="node4" class="node">
<title>3</title>
<path fill="none" stroke="#d85656" stroke-width="2" stroke-dasharray="5,2" d="M435,-108C435,-108 322,-108 322,-108 316,-108 310,-102 310,-96 310,-96 310,-84 310,-84 310,-78 316,-72 322,-72 322,-72 435,-72 435,-72 441,-72 447,-78 447,-84 447,-84 447,-96 447,-96 447,-102 441,-108 435,-108"/>
<text text-anchor="middle" x="378.5" y="-87.5" font-family="sans" font-size="10.00">get_sequence_measures</text>
</g>
<!-- 3&#45;&gt;0 -->
<g id="edge3" class="edge">
<title>3&#45;&gt;0</title>
<path fill="none" stroke="grey" stroke-width="2" d="M340.58,-71.88C316.06,-60.8 284.3,-46.46 260.05,-35.5"/>
<polygon fill="grey" stroke="grey" stroke-width="2" points="261.37,-32.26 250.82,-31.34 258.49,-38.64 261.37,-32.26"/>
</g>
<!-- 4 -->
<g id="node5" class="node">
<title>4</title>
<path fill="none" stroke="#56d8a9" stroke-width="2" stroke-dasharray="5,2" d="M120.5,-180C120.5,-180 16.5,-180 16.5,-180 10.5,-180 4.5,-174 4.5,-168 4.5,-168 4.5,-156 4.5,-156 4.5,-150 10.5,-144 16.5,-144 16.5,-144 120.5,-144 120.5,-144 126.5,-144 132.5,-150 132.5,-156 132.5,-156 132.5,-168 132.5,-168 132.5,-174 126.5,-180 120.5,-180"/>
<text text-anchor="middle" x="68.5" y="-165" font-family="sans" font-size="10.00">convert_fastq_to_fasta</text>
<text text-anchor="middle" x="68.5" y="-154" font-family="sans" font-size="10.00">sample: 21AL.A_R1</text>
</g>
<!-- 4&#45;&gt;1 -->
<g id="edge4" class="edge">
<title>4&#45;&gt;1</title>
<path fill="none" stroke="grey" stroke-width="2" d="M68.5,-143.7C68.5,-135.98 68.5,-126.71 68.5,-118.11"/>
<polygon fill="grey" stroke="grey" stroke-width="2" points="72,-118.1 68.5,-108.1 65,-118.1 72,-118.1"/>
</g>
<!-- 5 -->
<g id="node6" class="node">
<title>5</title>
<path fill="none" stroke="#56d8a9" stroke-width="2" stroke-dasharray="5,2" d="M275.5,-180C275.5,-180 171.5,-180 171.5,-180 165.5,-180 159.5,-174 159.5,-168 159.5,-168 159.5,-156 159.5,-156 159.5,-150 165.5,-144 171.5,-144 171.5,-144 275.5,-144 275.5,-144 281.5,-144 287.5,-150 287.5,-156 287.5,-156 287.5,-168 287.5,-168 287.5,-174 281.5,-180 275.5,-180"/>
<text text-anchor="middle" x="223.5" y="-165" font-family="sans" font-size="10.00">convert_fastq_to_fasta</text>
<text text-anchor="middle" x="223.5" y="-154" font-family="sans" font-size="10.00">sample: MA.B.E_R1</text>
</g>
<!-- 5&#45;&gt;2 -->
<g id="edge5" class="edge">
<title>5&#45;&gt;2</title>
<path fill="none" stroke="grey" stroke-width="2" d="M223.5,-143.7C223.5,-135.98 223.5,-126.71 223.5,-118.11"/>
<polygon fill="grey" stroke="grey" stroke-width="2" points="227,-118.1 223.5,-108.1 220,-118.1 227,-118.1"/>
</g>
<!-- 6 -->
<g id="node7" class="node">
<title>6</title>
<path fill="none" stroke="#56d8a9" stroke-width="2" stroke-dasharray="5,2" d="M430.5,-180C430.5,-180 326.5,-180 326.5,-180 320.5,-180 314.5,-174 314.5,-168 314.5,-168 314.5,-156 314.5,-156 314.5,-150 320.5,-144 326.5,-144 326.5,-144 430.5,-144 430.5,-144 436.5,-144 442.5,-150 442.5,-156 442.5,-156 442.5,-168 442.5,-168 442.5,-174 436.5,-180 430.5,-180"/>
<text text-anchor="middle" x="378.5" y="-165" font-family="sans" font-size="10.00">convert_fastq_to_fasta</text>
<text text-anchor="middle" x="378.5" y="-154" font-family="sans" font-size="10.00">sample: MA.C.A_R1</text>
</g>
<!-- 6&#45;&gt;3 -->
<g id="edge6" class="edge">
<title>6&#45;&gt;3</title>
<path fill="none" stroke="grey" stroke-width="2" d="M378.5,-143.7C378.5,-135.98 378.5,-126.71 378.5,-118.11"/>
<polygon fill="grey" stroke="grey" stroke-width="2" points="382,-118.1 378.5,-108.1 375,-118.1 382,-118.1"/>
</g>
</g>
</svg>
